<?xml version="1.0" encoding="UTF-8"?>
<svg version="1.1" viewBox="0 0 2048 2048" width="512" height="512" xmlns="http://www.w3.org/2000/svg">
<path transform="translate(0)" d="m0 0h2048v2048h-2048z"/>
<path transform="translate(1442,576)" d="m0 0h48l36 3 36 6 29 7 27 8 29 11 28 13 24 13 24 15 17 13 17 14 11 8-1 4-10 14-17 25-16 23-11 16-23 34-10 14-16 24-4-1-11-12-10-10-10-8-17-13-18-11-23-11-30-10-27-6-24-3h-43l-24 3-17 4-14 5-15 9-12 11-8 16-3 10-1 12 4 20 7 14 8 10 14 10 17 9 25 10 26 8 46 12 51 13 36 10 30 10 28 11 16 8 19 10 20 13 18 14 14 12 10 10 7 8 9 12 9 14 10 18 10 25 7 23 5 24 3 36v11l-3 33-5 24-7 24-9 21-11 21-12 18-13 17-16 17-13 12-16 12-18 11-17 9-26 11-20 7-20 6-30 7-32 5-24 2-26 1h-25l-31-1-28-3-36-6-34-8-23-7-31-11-25-11-26-14-21-13-17-12-17-13-10-9-8-7-10-9-15-14-7-7 1-5 13-15 8-10 9-11 12-14 13-16 9-11 20-25 9-11 13-16 9-12 4 1 27 27 8 7 13 11 18 13 13 8 14 8 24 12 24 9 25 7 36 6 20 2h23l29-3 20-4 21-7 17-9 15-14 6-9 5-15 1-5v-25l-3-12-7-14-7-7v-2l-4-2-8-7-15-9-21-10-25-8-92-23-31-8-28-8-36-12-29-12-22-12-16-10-16-12-14-12-10-10-7-8-10-12-14-23v-3l10-1 12-6 10 16 11 13 21 21 10 8 18 12 24 13 23 10 25 9 33 10 45 12 73 18 25 7 20 7 21 9 16 9 14 11 12 12 8 13 6 14 4 17 1 10v12l-3 19-4 12-7 14-8 10-11 11-15 10-18 8-15 5-26 6-30 3h-32l-29-3-26-5-23-6-23-8-28-13-19-10-21-14-17-12-13-12-8-7-6-5-5-5-4 4-8 10-2 3h-2l1 5 8 7 13 12 8 7 18 14 17 11 16 10 16 8 22 10 30 10 26 7 36 6 27 3 6 1v8l-1 1h-18l-36-5-23-5-25-7-24-8-23-10-22-12-13-8-20-14-17-13-12-11-16-14-3-1-2 4-11 14-13 16-6 8 1 4 11 11 11 9 13 11 18 13 11 7 14 9 10 5-1 6-2 4-4-1-10-6-11-6-12-8-16-12-14-11-11-10-8-7-7-6-4 1-9 11-7 9v4l8 7 14 12 15 12 17 12 15 10 19 11 23 12 28 12 36 12 29 7 31 6 27 4 36 3h38l31-3 28-4 29-6 26-7 23-8 24-10 17-9 11-7 13-9 13-10 13-13 11-14 9-12 8-13 12-25 9-25 5-22 3-24v-37l-4-30-5-20-9-24-8-16-8-14-9-12-12-14-3-3v-2l-4-2-13-12-16-12-21-13-21-11-29-12-30-10-28-8-76-20-26-7-27-8-28-10-15-7-14-8-14-11-12-12-6-10-8-21-2-16v-15l2-14 6-17 7-11 9-10 8-7 15-9 21-9 21-5 21-3 15-1h24l24 2 26 4 21 5 30 10 23 10 16 9 12 8 11 8 10 9 5 4 2 3h3l13-18 2-3-1-4-13-11-14-10-15-9-18-10-18-8-22-8-29-8-26-5-32-4-3-1v-8l4-1 29 3 23 4 32 8 23 8 23 10 19 10 18 12 12 9 13 11h3l7-11 7-10 15-22-1-4-10-8-18-13-17-11-23-12-29-13-44-15v-9l11 2 36 12 21 9 16 8 19 10 21 14 24 18 3-1 13-18 1-4-17-12-16-11-13-8-15-9-16-8-20-9-28-10-24-7-23-6-21-4-33-4-17-1h-57l-36 4-36 7-36 11-24 10-17 9-18 11-13 10-12 11-16 16-11 15-13 22-8 17-7 21-4 16-3 19-2 21v20l2 21v7l-9 4-12 6h-2l-2-12-2-33v-16l3-31 4-20 8-26 9-20 9-17 12-18 11-13 7-8 15-15 14-11 14-10 15-9 27-14 21-8 26-8 29-7 30-5z" fill="#84FAEA"/>
<path transform="translate(964,712)" d="m0 0h2v412l1 12 15 14v2h2l7 8 20 20 3 4v237l55 1-1-285-9-9-7-8-12-12-7-8-11-11-7-8-9-10-1-3v-338l4-1 6 2v335l9 11 36 36 7 8 1 1 1-50 4-1h18l2 1v367l-2 7h-181l-2-1-1-508-12 21-11 19-16 28-15 26-12 21-13 23-14 24-16 28-9 15-13 23-10 17-15 26-7 11-6 11-10 17-6 11-4 6-1 1h-86l-8-13-6-11-28-48-9-16-6-11-6-10-6-11-12-21-6-11-15-27-14-24-15-26-11-19-15-25-14-24-15-25-3-6-2 112v52l-1 53-1 3v6h-4l-2-5-5-3-6 5h-1l-1-15-1-30-1-268h3l11 21 16 26 6 11 9 15 13 22 10 18 10 17 32 56 14 24 8 14 14 24 15 26 12 21 10 17 12 21 28 50 6 9 58 1 2-5 14-24 11-20 15-25 9-16 11-19 14-24 15-27 14-25 13-23 10-17 14-25 14-24 13-22 15-26 10-17 14-24 11-19 7-11 2-1v576h26v-89l15-15v-78l-6-4-3-5v-9l4-6 6-4h7l7 4 4 6-1 9-6 8-1 1-1 79-3 6-13 13-1 5v79h39v-149l-1-83-4-6-8-8-7-8-24-24-4-5-1-90v-302l-7 10-15 26-14 24-16 28-11 18-14 24-16 28-14 25-7 10 1 5 3 5v7l-6 9-6 5-9 1-7-3-6-7-3-8 2-9 4-5 7-4 12-1 29-49 16-27 13-23 9-15 15-26 13-22 16-29 11-18z" fill="#478FD9"/>
<path transform="translate(248,589)" d="m0 0h200l5 8 8 14 13 23 15 27 16 29 12 22 13 23 14 25 12 21 15 27 13 24 12 21 12 22 12 21 13 24 14 24 15 28 10 17 3-3 12-21 6-11 13-24 12-21 14-26 14-24 15-28 13-23 14-26 13-23 13-24 14-25 13-24 13-23 16-30 9-16 13-24 3-4h39l158 1 1 5v357l-1 1h-20l-3-2v-337l-25-1-1 110h-7l-1-2v-108l-20 1-1 61-1 19-1 1-59 1-14 24-12 21-10 17-12 21-15 26-12 21-15 26-12 21-9 16-2 1-50 1-3-3v-7l6-1h42l13-21 12-21 13-22 16-28 14-24 13-23 14-25 13-23 5-8h23l34 1v-73l-35 1-13 23-14 25-13 23-15 27-12 21-15 26-12 21-10 17-20 35-14 24-5 6h-6l-1-5 5-7 6-11 15-27 9-15 11-19 16-27 14-25 12-21 11-20 9-16 15-27 13-23 3-6h-50l-1 4-15 28-9 16-15 27-24 44-14 24-14 26-12 21-12 22-7 12-7 14-12 22-12 21-10 18-10 17-16 29-30 54-7 12-6 11-2 3-3-1-16-28-13-23-13-24-14-24-14-25-14-24-16-30-9-15-6-11-13-24-9-16-12-22-10-18-9-16-15-28-11-19-13-24-10-18-12-22-8-13h-27l-4 1 6 11 14 25 13 23 10 18 14 25 13 23 11 20 13 23 14 26 13 23 35 63 6 11h9l7 3 6 5 3 7-1 9-3 5v5l8 13 28 49 9 16 6 11 17 29 12 21 6 10 2 1 2-5 14-25 8-13 9-16 20-35 15-26 9-16 8-13v-6l-3-6v-10l5-8 6-4 3-1h7l8 4 6 9v8l-4 8-6 5-12 3-16 28-10 17-12 21-14 25-8 13-24 42-8 13-5 5-4-5-6-11v-2h-2l-13-24-6-10-10-17-11-20-11-18-8-14-14-24-9-16-4-3-11-2-6-5-4-8v-8l4-8-13-23-6-11-13-24-13-23-6-10-6-11-13-24-12-21-9-16-6-11-10-19-14-24-10-18-7-14-10-18-11-20-5-10h-29v72l8 10 11 12v3l-4 1h-7l-8-11-9-11-1-2v-75h-19v284l-7 8-8 7-5 6-7 6-1 2h-2l-1 8 1 1v19l-1 44v14h-2l1 12v12l-1 9v6l-1 5-1 12h-1l-1-16v-128l7-8 10-10h2l2-4 3-3 2-5 1-281h-54l-1 358-1 12-2 5 1 5-2 5-4-2v-5-1-3l-4 1 1 8-3 14-3 4v21l-1 19-1 3h-2l-1-28z" fill="#4BD1EF"/>
<path transform="translate(247,590)" d="m0 0h1l1 467h2v-10l1-19v-15l2-2 2-1 1-10 1-9v-3l4-1v3h2l-2 6 4 1v-4l1-4-1-3 2-3 1-12 1-351 1-7h54v281l-3 6-5 6-8 7-9 9-1 2v132l1 3v-7l1-2v-11l1-9v-12l-1-4 1-2h2l-1-2v-24l1-32v-19l-1-3 2-6h1v180l2 4 4 2 16 16 2 4v16l-6 9-20 20-7 8-3 1-2 4-5 5-6 5-7 8-2 2-1 7v97l-1 108h110l-1-7v-145l1-5-5-1-5-4-4-9v-8l6-9 4-3 3-1h10l6 4 5 6 1 4v8l-4 8-5 4h-3l-1 158h28l1-550h1l1 253 1 24 1 10h2l1-3 4-2 6 5v4l3-1v-6l1-2 1-53v-56l2-109 2 1-1 72-1 435-2 2h-191l-1-1z" fill="#4579CF"/>
<path transform="translate(1205,945)" d="m0 0 3 3 10 16 14 15 16 16 10 8 18 12 24 13 23 10 25 9 33 10 45 12 73 18 25 7 20 7 21 9 16 9 14 11 12 12 8 13 6 14 4 17 1 10v12l-3 19-4 12-7 14-8 10-11 11-15 10-18 8-15 5-26 6-30 3h-32l-29-3-26-5-23-6-23-8-28-13-19-10-21-14-17-12-13-12-8-7-6-5-5-5-4 4-8 10-2 3h-2l1 5 8 7 13 12 8 7 18 14 17 11 16 10 16 8 22 10 30 10 26 7 36 6 27 3 6 1v8l-1 1h-18l-36-5-23-5-25-7-24-8-23-10-22-12-13-8-20-14-17-13-12-11-16-14-3-1-2 4-11 14-13 16-6 8 1 4 11 11 11 9 13 11 18 13 11 7 14 9 10 5-1 6-2 4-4-1-10-6-11-6-12-8-16-12-14-11-11-10-8-7-7-6-4 1-9 11-7 9v4l8 7 14 12 15 12 17 12 15 10 19 11 23 12 28 12 36 12 29 7 31 6 27 4 36 3h38l31-3 28-4 29-6 26-7 23-8 24-10 17-9 11-7 13-9 13-10 13-13 11-14 9-12 8-13 1-2 5-1-2 4-2 7-3 3-4 6 4-3 1 3 6-1-1 6v8l2 4-12 16-16 17-13 12-16 12-18 11-17 9-26 11-20 7-20 6-30 7-32 5-24 2-26 1h-25l-31-1-28-3-36-6-34-8-23-7-31-11-25-11-26-14-21-13-17-12-17-13-10-9-8-7-10-9-15-14-7-7 1-5 13-15 8-10 9-11 12-14 13-16 9-11 20-25 9-11 13-16 9-12 4 1 27 27 8 7 13 11 18 13 13 8 14 8 24 12 24 9 25 7 36 6 20 2h23l29-3 20-4 21-7 17-9 15-14 6-9 5-15 1-5v-25l-3-12-7-14-7-7v-2l-4-2-8-7-15-9-21-10-25-8-92-23-31-8-28-8-36-12-29-12-22-12-16-10-16-12-14-12-10-10-7-8-10-12-14-23v-3l10-1 8-4z" fill="#4793DA"/>
<path transform="translate(895,589)" d="m0 0h39l158 1 1 5v357l-1 1h-20l-3-2v-337l-25-1-1 110h-7l-1-2v-108l-20 1-1 61-1 19-1 1-59 1-14 24-12 21-10 17-12 21-15 26-12 21-15 26-12 21-9 16-2 1-50 1-3-3v-7l6-1h42l13-21 12-21 13-22 16-28 14-24 13-23 14-25 13-23 5-8h23l34 1v-73l-35 1-13 23-14 25-13 23-15 27-12 21-15 26-12 21-10 17-20 35-14 24-5 6h-6l-1-5 5-7 6-11 15-27 9-15 11-19 16-27 14-25 12-21 11-20 9-16 15-27 13-23 3-6h-50l-1 4-15 28-9 16-15 27-24 44-14 24-14 26-12 21-12 22-7 12-7 14-12 22-12 21-10 18-10 17-16 29-7 12-3-1 2-9v-6l-1 2h-5l2-6 1-4-2 1-2 4-4-2-1 3-4 4-2 5h-2l1-5 14-26 12-21 14-26 14-24 15-28 13-23 14-26 13-23 13-24 14-25 13-24 13-23 16-30 9-16 13-24z" fill="#85FCEB"/>
<path transform="translate(271,613)" d="m0 0h54v281l-7 8-20 20-1 182 2 7 19 19 3 5v10l-4 6-33 33-7 8-5 4h-1l-1-15v-97z"/>
<path transform="translate(418,846)" d="m0 0 3 3 10 19 16 26 6 11 9 15 13 22 10 18 10 17 32 56 14 24 8 14 14 24 15 26 12 21 10 17 12 21 28 50 6 9 58 1 2-5 14-24 11-20 15-25 9-16 11-19 14-24 15-27 14-25 1 2 2-1 2-4h2l2-4v3 3l1 4-1 7h3l2 3v5h5l-2 5-16 28-15 26-10 17-12 21-14 24-15 25-6 11-10 17-6 11-4 6-1 1h-86l-8-13-6-11-28-48-9-16-6-11-6-10-6-11-12-21-6-11-15-27-14-24-15-26-11-19-15-25-14-24-15-25-3-6-2 112v52l-1 53-1 3v6h-4l-2-5-5-3-6 5h-1l-1-15-1-30-1-268z" fill="#4BD1EF"/>
<path transform="translate(383,812)" d="m0 0h56l12 22 12 21 13 23 15 27 28 49 9 15v3h38l4 4 14 25 8 13 15 26 14 23 10 17 16 28 8 13 6 11 11 18h2l6-11 11-19 6-9 16-28 15-26 11-20 10-17 13-23 12-21 4-3 6 3-1 6-7 11-13 22-9 16-14 25-8 14 22 1 1-4 15-26 13-22 6-11h7l2 1-2 6-12 22-6 10-6 11-28 49-15 25-17 29-11 18-8 14-3 5 1 5v9l-4 7-4 4h-9v-2l-2-1 3-1v-2l4 1 2-4v-11l-4-2h-7l-4 4v6l3 5-2 1-2-1v-2l-4-2-3 1-1 2-1-8 1-9 1-2h-4l-10-17-5-9-7-11-6-11-9-16-7-11-13-23-15-25-14-24-11-18-7-12-1-6 6-3 4 4 8 14 8 13 10 18 7 10 20 1-7-14-14-24-14-23-13-22-3-4-36-1-7-10-7-12-6-10-16-29-14-24-15-27-13-23-12-22-2-2-37-1-4-1v195l-1 155-39 39-9 10-7 7-1 9-1 130 8 8 3 5v12l-3 5-7 6-3 1h-9l-6-3-5-7-1-3v-8l4-8 8-6h2v-123l1-23 9-8 5-5 4-5 35-35 2-3 1-353z" fill="#44ACE8"/>
<path transform="translate(1409,756)" d="m0 0 4 3v2l-16 5-14 7-12 9-8 9-6 13-3 10-1 12 4 20 7 14 8 10 14 10 17 9 25 10 26 8 46 12 51 13 36 10 30 10 28 11 16 8 19 10 20 13 18 14 14 12 10 10 7 8 9 12 9 14 10 18 10 25 7 23 5 24 3 36v11l-3 33-5 24-7 24-9 21-11 21-12 18h-2v-2l-2-1v-10l2-4-6 2-2-1-4 1 5-9 3-1 1-7 3-4-4 1 2-6 8-17 9-25 5-22 3-24v-37l-4-30-5-20-9-24-8-16-8-14-9-12-12-14-3-3v-2l-4-2-13-12-16-12-21-13-21-11-29-12-30-10-28-8-76-20-26-7-27-8-28-10-15-7-14-8-14-11-12-12-6-10-8-21-2-16v-15l2-14h1v9l2 3 1 25 4 3-1-12 1 2h2l1-5 3-9h2l1-11 10-20 6-7 11-9 20-10 9-2 5-2z" fill="#56F7FC"/>
<path transform="translate(1205,945)" d="m0 0 3 3 10 16 14 15 16 16 10 8 18 12 24 13 23 10 25 9 33 10 45 12 73 18 25 7 20 7 21 9 16 9 14 11 12 12 8 13 6 14 4 17 1 10v12l-3 19-4 12-7 14-8 10-11 11-10 7h-7l-1-4-4-1 8-4 3-4 1-4-1 1-6 2-3-3-1-5 2-2 2-5 8-7 7-8 5-12 3-12v-25l-3-12-7-14-7-7v-2l-4-2-8-7-15-9-21-10-25-8-92-23-31-8-28-8-36-12-29-12-22-12-16-10-16-12-14-12-10-10-7-8-10-12-14-23v-3l10-1 8-4z" fill="#55F7FC"/>
<path transform="translate(1236,1168)" d="m0 0 4 1 27 27 8 7 13 11 18 13 13 8 14 8 24 12 24 9 25 7 36 6 20 2h23l29-3 20-4 21-7 17-9 3-2-1 4-1 3 2 3 1 3 6-2v-2l2 1-2 6-8 6 2 5 3-1 2 2-16 8-20 7-26 6-30 3h-32l-29-3-26-5-23-6-23-8-28-13-19-10-21-14-17-12-13-12-8-7-6-5-5-5-4 4-8 10-2 3h-2l1 5 8 7 13 12 8 7 18 14 17 11 16 10 16 8 22 10 30 10 26 7 36 6 27 3 6 1v8l-1 1h-18l-36-5-23-5-25-7-24-8-23-10-22-12-13-8-20-14-17-13-12-11-16-14-3-1-2 4-11 14-8 10h-2v-3h-2l1-4h2l2-5h-2l-1 3h-2v2h-2v2h-2v2h-2l-1 2v-3l-1-1-5 2v-3h-2v-3l7-6 4-5v-4l-9 11-3 4-6 2 2-5 12-14 11-14 13-16 9-11 13-16z" fill="#42BDF1"/>
<path transform="translate(818,1048)" d="m0 0v3 3l1 4-1 7h3l2 3v5h5l-2 5-16 28-15 26-10 17-12 21-14 24-15 25-6 11-10 17-6 11-4 6-1 1h-86l-8-13-6-11-28-48-9-16-6-11-6-10-6-11-12-21-6-11-2-6 3-3-1-3 2-2 7 12 3 5 2-2 2 5h-2l1 2 3-1 2 4v3l5 5 4 6 4 4 2 1-2-6-2-1v-2l6-1 1 5 6 2 4 5 16 28 13 23 15 27 9 15 1 1 58 1 2-5 14-24 11-20 15-25 9-16 11-19 14-24 15-27 14-25 1 2 2-1 2-4h2z" fill="#4793DA"/>
<path transform="translate(1178,889)" d="m0 0h13l8 4 6 7 3 6 1 9-3 9-7 8-6 3-5 1h-7l-6-2-6 1-19 19h-2l-2 4h-2l-2 4-8 7-9 10-10 10 1 6 3 9v15l-3 9-1 5 13 10 15 13 17 14 11 10 4-1 7-4 4-1h8l8 3 6 4 6 8 2 5 1 11-4 10-5 6-9 5-3 1h-10l-9-4-7-6-5-10v-17l-56-48-4 1-10 7-6 2-14 1-9-2-10-5-8-7-6-10-3-9v-15l4-11 6-9 8-7 8-4 6-2h15l12 4 8 5 18-18 8-7 9-9 7-8 14-13 1-4-2-7 1-9 4-8 8-7z" fill="#55F4FB"/>
<path transform="translate(931,846)" d="m0 0h1l-1 235h-1l-2 8-2 1-3-7-4-8-3-1-1 6-2 8h-2l-2 3v-156h-2l-2 5-14 25-10 17-14 25-14 24-24 42-4 1-2-1-2-8h-3l-1-4 1-7-2-1 1-3-3 3-2 4h-2l1-5 11-20 10-17 14-25 14-24 13-22 15-26 10-17 14-24 11-19 7-11z" fill="#56FBFD"/>
<path transform="translate(383,812)" d="m0 0h56l12 22 12 21 13 23 15 27 28 49 9 15 1 5-5-1v-3l-3 1-1-3v4h-2l-7-12-6-10-16-29-14-24-15-27-13-23-12-22-2-2-37-1-4-1v195l-1 155-39 39-9 10-7 7-1 9-1 130 8 8 3 5v12l-3 5-7 6-3 1h-9l-6-3-5-7-1-3v-8l4-8 8-6h2v-123l1-23 9-8 5-5 4-5 35-35 2-3 1-353z" fill="#43C1F1"/>
<path transform="translate(1419,943)" d="m0 0h8l7 3 5 5 4 9 46 12 43 11 42 12 37 13 23 10 15 8 21 14 10 9 2 1v2l4 2 14 14 14 19 10 15 3 6-1 1h-22l3 10 8 21 5 18 3 14 1 10v38l-2 15-4 17-7 21-10 23-11 18-14 18-12 13-14 12-16 11-14 8-24 11-28 9-29 6-15 2-2-3v-5l4-3 21-3 28-7 27-10 16-8 13-7 11-8 11-9 7-6 7-8 8-9 12-18 6-10 10-23 5-17 4-20 2-22v-12l-2-23-5-25-8-23-10-21-1-5h16l4 1-4-8-11-15-8-10-8-8-14-11-14-9-18-10-21-10-15-6-32-10-28-8-87-22-5-2-4 1-7 6-2 1h-11l-7-4-4-6-2-6 1-8 5-8z" fill="#53EAF8"/>
<path transform="translate(407,633)" d="m0 0 4 3h2l1-2 14 25 12 21 15 27 14 25 13 23 14 26 10 18 14 25 25 45 12 21 8 15h9l7 3 6 5 3 7-1 9-3 5v5l8 13 28 49 9 16 6 11 17 29 12 21 6 10 2 1 2-5 14-25 8-13 9-16 20-35 15-26 9-16 8-13v-6l-3-6v-10l5-8 6-4 3-1h7l8 4 6 9v8l-4 8-6 5-12 3-16 28-10 17-12 21-14 25-8 13-24 42-8 13-5 5-4-5-6-11v-2h-2l-13-24-6-10-10-17-11-20-11-18-8-14-14-24-9-16-4-3-11-2-6-5-4-8v-8l4-8-13-23-6-11-13-24-13-23-6-10-6-11-13-24-12-21-9-16-6-11-10-19-14-24-10-18-7-14-10-18-2-5h2v-3h-2z" fill="#43B3EB"/>
<path transform="translate(1453,730)" d="m0 0h24l24 2 26 4 21 5 30 10 23 10 16 9 12 8 11 8 3 2-1 3-5-1-11-8-2-1 5 5 5 4 3 5v6l-1 2-7-1-10-6-3-3h-3l3 2v2l7 2v2h2l3 5h-4l-15-11-15-9-23-11-30-10-27-6-24-3h-43l-24 3-10 1-4-3-2 2-6 2-9 2-18 9-14 12-4 6-6 13-3 9-1 6h-2l-2 9-2 5h-2l1 11-6-4-1-25-2-4 2-15 5-12 9-13 11-11 18-11 21-9 21-5 21-3z" fill="#84FAEA"/>
<path transform="translate(394,673)" d="m0 0 4 2 10 18 14 24 16 28 10 17 8 13 6 12 10 17 12 21 12 23 6 11 13 23 1 5-5 4-3-1-10-17-8-16 1-3 1 3h2v3h3l-1-6-3-1-1-3-3-1-2 2-6-8-14-25-10-18-7-12-4-8-3-4-80-1v382l-21 21-7 8-9 9h-2l-1 3-8 7-7 7h-2l-1 45-1 40-1 3-2 2 1 9h-2l-2-11-1-75-1-14 7-8 8-7 17-17 2-3h2v-2l8-7 7-8 5-4 1-3 1-386h69l14 1-12-22-13-23-11-21-10-19-1-6z" fill="#42B9EF"/>
<path transform="translate(1380,659)" d="m0 0h6l2 7 8-1 23-4 21-2h46l22 2 25 4 31 7 22 7h3l5-5 4-2h8l8 4 4 4 2 5v9l-4 8-6 5-4 1h-7l-6-3-5-5-4-11-24-7-31-7-29-4-16-1h-48l-30 4-10 2h-4l1 9-5 3-15 6-28 13-13 7-4-2-1-4-5 2-10 9-10 11-9 14-9 17-7 19-5 24-1 8v31l3 21 10 4 6 8 1 2v11l-6 9-6 3h-9l-7-3-5-6-2-6v-7l4-6 4-4v-8l-2-12-1-11v-17l2-18 4-22 6-20 8-16 8-14 8-10 11-12 12-10-1-4-2-3 1-4 11-7 21-10 27-11z" fill="#81F4E9"/>
<path transform="translate(1008,729)" d="m0 0 7 2v335l9 11 36 36 7 8 1 1 1-50 4-1h18l1 1v155l-2-2-3 1-2-4-3-2-1-5-5-1-2-2-2-1-1 27h-1v-102l-4-1-7-7-7-8-12-12-7-8-11-11-7-8-9-10-1-3v-338z" fill="#55F6FC"/>
<path transform="translate(964,712)" d="m0 0h2v412l1 12 6 6 2 5 13 13 7 8 4 4v3h2v2l-5 1-4-2-7-8-24-24-4-5-1-90v-302l-7 10-15 26-14 24-16 28-11 18-14 24-16 28-14 25-7 10 1 5 3 5v7l-6 9-6 5-9 1-7-3-6-7-3-8 2-9 4-5 7-4 12-1 29-49 16-27 13-23 9-15 15-26 13-22 16-29 11-18z" fill="#56F0F9"/>
<path transform="translate(1682,1179)" d="m0 0h10l7 4 5 6 1 3v8l-4 8-6 6h-2l-2 18-5 20-5 15-8 17-7 11-12 15-7 8-8 8-13 10-15 9-23 11-30 10-28 6-21 3-24 1h-26l-29-2-27-4-28-6-24-7-20-7-16-6-15-7-18-10-19-12-5-3-6 2-2 1h-10l-6-3-5-6-2-4v-10l5-8 8-5h9l6 3 5 6 2 5v10l5 2 16 10 18 10 23 11 24 9 27 8 28 6 26 4 23 2h37l35-3 25-5 24-7 19-7 16-8 16-11 9-7 10-9 11-13 10-15 8-16 6-18 4-21 1-11-6-2-6-8-1-3v-9l5-8 5-4z" fill="#4792DA"/>
<path transform="translate(1236,1168)" d="m0 0 4 1 27 27 8 7 13 11 1 4 2 1v3l4 1h-2l4 4v2h2v2h3v4h5l3 3v2l-4-2-13-6h-6l-1 3-5-2-9-6-2 3-2-1-1 2-8-7-10-9-5-4-5-5-4 4-8 10-2 3h-2l1 5 8 7 13 12 8 7 18 14 17 11 16 10 16 8 22 10 30 10 26 7 36 6 27 3 6 1v8l-1 1h-18l-36-5-23-5-25-7-24-8-23-10-22-12-13-8-20-14-17-13-12-11-16-14-3-1-2 4-11 14-8 10h-2v-3h-2l1-4h2l2-5h-2l-1 3h-2v2h-2v2h-2v2h-2l-1 2v-3l-1-1-5 2v-3h-2v-3l7-6 4-5v-4l-9 11-3 4-6 2 2-5 12-14 11-14 13-16 9-11 13-16z" fill="#4BD1EF"/>
<path transform="translate(1303,929)" d="m0 0 4 1 17 17 11 8 13 8 23 12 29 11 42 13 26 7 8 3 3-11 3-1 43 12 27 8 32 11 8 5-3 6v3l16 8 15 9 16 12 12 11 11 13 12 19 1 5-4 4h-3l-10-15-9-12-6-7-2-1v-2l-4-2-12-10-17-11-18-10-3-1-3 7-6-1-19-7-21-7-23-7-31-8-8-2-1-5 2-4-11-2-37-10-20-6-38-14-14-7-11-6-16-10-10-8-15-15-3-5 2-4z" fill="#54F1FA"/>
<path transform="translate(1751,1306)" d="m0 0h2l-2 4-2 7-3 3-4 6 4-3 1 3 6-1-1 6v8l2 4-12 16-16 17-13 12-16 12-18 11-17 9-26 11-20 7-20 6-30 7-13 2-16-1-1-3-2-2h-8v-4l2-2-2-2 4-3v-2l4-2 9-2 3 1v-2l6 1v-2l9-1 6-2h3l1-2 31-8 26-9 24-10 17-9 11-7 13-9 13-10 13-13 11-14 9-12 8-13 1-2z" fill="#4BCFEE"/>
<path transform="translate(856,704)" d="m0 0 1 3-6 10-5 13-16 28-13 24-12 21-12 22-7 12-7 14-12 22-12 21-10 18-10 17-16 29-7 12-3-1 2-9v-6l-1 2h-5l2-6 1-4-2 1-2 4-4-2-1 3-4 4-2 5h-2l1-5 14-26 12-21 14-26 21-36 3-3 12-22 8-14 6-11 10-17 6-12 10-17 2-4 2-1v-2l5-1 1 4-4 9-2 6h-2l-3 9-4 8-6 11-3 7 4-2 5-9 18-27 1-4 4-8 3-5 3-7 6-9 1-3h2v-2l9-9h2l2-7z" fill="#56F9FD"/>
<path transform="translate(441,936)" d="m0 0 2 1-1 72-1 215-1 15-1 150-1 18-3-2-1-11-1-14-2-5-4-1-4 26-1 6h-3l-1-16v-265h1l1 24 1 10h2l1-3 4-2 6 5v4l3-1v-6l1-2 1-53v-56z" fill="#4794DB"/>
<path transform="translate(1490,1048)" d="m0 0 9 1 29 8 25 8 19 7 23 12 14 10 11 9 10 10 10 14 8 16 6 16 5 22 1 9v25l-3 20-6 20-8 16-7 11-13 14-5 5-11 9-14 8-17 8-26 8-9 2-3 9-7 6-2 1h-12l-6-3-4-5-2-5v-9l3-6 7-6 10-2 9 4 4 4h8l21-6 13-5 16-8 14-10 13-12 9-13 7-11 6-16 3-12 2-16v-23l-3-21-7-21-7-14-8-12-11-12-9-8-13-9-23-12-19-8-32-10-27-7-3-2 1-6z" fill="#53EAF8"/>
<path transform="translate(818,1048)" d="m0 0v3 3l1 4-1 7h3l2 3v5h5l-2 5-16 28-15 26-10 17-12 21-14 24-15 25-6 11-11 19h-2l1-9 1-5v-3h-2v3h-2l-1 5-2 1-1 3-7-1-3-8 1-7 24-42 12-20 9-16 11-19 14-24 15-27 14-25 1 2 2-1 2-4h2z" fill="#42BFF1"/>
<path transform="translate(1439,629)" d="m0 0h10v9l-2 1-27 2-31 5-28 7-21 7-18 8-25 13-12 9-13 11-9 9-13 17-7 10-7 12v1h20l-1 7-6 17-6 25-2 15-1 15v11l2 20 4 22 6 20 8 18 9 16 11 16 10 11 4 7-4 6h-4l-7-9-10-12-7-11-10-17-8-18-6-18-6-29-1-7v-39l4-27 5-19 3-11h-23l2-5 13-23 14-20 14-15 12-12 19-13 18-10 20-9 27-9 27-7 23-4z" fill="#80F4E9"/>
<path transform="translate(599,1080)" d="m0 0h10l11 1 4 5 13 23 8 13 20 34 6 10 3 1 11-19 10-17 28-48 4-3h21l-1 4-6 11-12 20-16 27-11 19-11 18-8 13-6-2h-10l-6 1-12-22-11-18-16-28-11-19-12-20z"/>
<path transform="translate(1486,694)" d="m0 0 31 3 23 4 32 8 23 8 23 10 19 10 18 12 12 9 13 11 1 3 9-5 1 2-1 9-2 3 1 6 5-5 6-7 3-7 5-5 7-11 4-3h2l2-4 7-8 3-2-1 7-8 11-11 16-23 34-10 14-16 24-4-1-11-12-10-10-10-8-3-3v-3l-1-3h-2v-2l-5-1-2-1v-2l-4-2 1-2 6 3 1 2 5 3 8 3 3 1v-8l-5-7-8-5v-2l-2-2 4 1 7 6 5 3 5 1h3l12 12h3l13-18 2-3-1-4-13-11-14-10-15-9-18-10-18-8-22-8-29-8-26-5-32-4-3-1v-8z" fill="#7CF1EA"/>
<path transform="translate(247,590)" d="m0 0h1l1 467h2v-10l1-19v-15l2-2 2-1 1-10 1-9v-3l4-1v3h2l-2 6 4 1v-4l1-4-1-3 2-3 1-12 1-351h1v464l-1 13-1 39-3-4 1-2h-2l-2 12h-3v2h-2l-1-3 1-1-1-3-2 5-2 4h2v7l1 2-2 3-1 9v3 19l1 4-1 7-1 10-1 2 2 1-1 10v2h-2l2 9v11 3l-1 5 1 4v22l-1 5v9h-3l-1-25z" fill="#478ED8"/>
<path transform="translate(259,771)" d="m0 0 2 1v2h2l1 6 2 36 4 6v149l-1 12-2 5 1 5-2 5-4-2v-5-1-3l-4 1 1 8-3 14-3 4v21l-1 19-1 3h-2l-1-28v-163l1-76 3 1v-7l2 4-1 9 1 3h2v-9l1-2v-8l1-7z" fill="#42C1F2"/>
<path transform="translate(1071,1209)" d="m0 0 6 4 5 2 1 5 3 2 2 3h2v-13h1l1 15v196h-1v21l-4-1-3-2 2-4 1-15-7-11h-3l-2 2 1 3-3 3-3-6v-175z" fill="#44AEE9"/>
<path transform="translate(464,960)" d="m0 0 4 4 4 7v2l4-1v2l5 2 1 2 4 2-1-8-2-1 1-3 2 2 2-1 3 1 13 23 14 24 13 23 11 19 14 24 15 26 12 21 5 8v3l-4-2-3-3v-3l-6 1 3 3 1 6-5-1-3-6-5-7-3-2-1-7h-2l-1 2-1-3h2l-2-4-2 3-7-12-4-5 1 4-5 2-14-24-14-25-6-10-15-26-17-28-14-24 2-2z" fill="#43BFF1"/>
<path transform="translate(981,902)" d="m0 0h7l1 1 1 215 4 6 13 12 9 10 27 27 1 2v115l-1 100-1 1h-5l-1-1-1-113v-74l-1-24-7-8-21-21v-2h-2l-7-8-16-16-1-3v-185z" fill="#53ECF9"/>
<path transform="translate(907,935)" d="m0 0h2l1 153 3-2 3-12 4 1 7 14 2-10 2 2v117l-2 48-2 14-1 6-5 1-2-3-2 3-2 15-2 3v4l-2 1v8l-2 1-1-159z" fill="#4BD2EF"/>
<path transform="translate(777,973)" d="m0 0 7 3-1 6-7 11-13 22-9 16-14 25-8 14 22 1 1-4 15-26 13-22 6-11h7l2 1-2 6-12 22-6 10-6 11-28 49-15 25-17 29-11 18-8 14-3 5 1 5v9l-4 7-4 4h-9v-2l-2-1 3-1v-2l4 1 2-4v-11l-4-2h-7l-4 4v6l3 5-2 1-2-1v-2l-4-2-3 1-1 2-1-8 1-11-1-2 1-4-3-2 1-2 6 3v2l6-2h10l6 2 11-19 11-18 14-24 10-17 18-30 1-3-9 1h-12l-5 5-8 14-1-2-5-1-1-3 15-27 10-17 10-18 14-24 12-22 7-11z" fill="#4ACAEE"/>
<path transform="translate(382,813)" d="m0 0h1l1 65v150l1 95h3v-51l2-21h1v120l-39 39-9 10-7 7-1 9-1 130 8 8 3 5v12l-3 5-7 6-3 1h-9l-6-3-5-7-1-3v-8l4-8 8-6h2v-123l1-23 9-8 5-5 4-5 35-35 2-3z" fill="#4579CF"/>
<path transform="translate(1419,943)" d="m0 0h8l7 3 5 5 4 9 46 12 43 11 42 12 37 13 23 10 15 8 21 14 10 9 2 1v2l4 2 14 14 9 12-2 5-1 3-6-2-14-18-9-9-14-11-14-9-18-10-21-10-15-6-32-10-28-8-87-22-5-2-4 1-7 6-2 1h-11l-7-4-4-6-2-6 1-8 5-8z" fill="#54EDF9"/>
<path transform="translate(1417,684)" d="m0 0h10l6 3 5 6 2 6-1 10-4 6-5 4-3 1h-9l-6-3-7-8-29 9-20 9-14 9-12 11-8 11-9 17-5 13-4 16-1 9v32l2 13 5 15 8 16 8 12 9 9 14 11 17 10 1 2-3 6-3 1-17-9-11-9-7-6-9-11-10-15-7-16-5-19-2-14v-23l3-22 4-15 6-15 8-14 8-11 6-7 14-11 25-13 21-7 16-4 5-10 5-4z" fill="#7EF0E9"/>
<path transform="translate(418,931)" d="m0 0h1l1 77 2 3v7l2-2v-8l2-4v-8l5-1 3 7v5l3-2 1-8h1l1 17v87l-1 53-1 3v6h-4l-2-5-5-3-6 5h-1l-1-15-1-30z" fill="#42C1F2"/>
<path transform="translate(1682,1179)" d="m0 0h10l7 4 5 6 1 3v8l-4 8-6 6h-2l-2 18-5 20-5 15-8 17-7 11-12 15-7 8-8 8-13 10-15 9-23 11-30 10-25 4-5-1v-2l-10-1 1-2 18-3 13-3h3v-2l26-8 17-7 12-6 16-11 9-7 10-9 11-13 10-15 8-16 6-18 4-21 1-11-6-2-6-8-1-3v-9l5-8 5-4z" fill="#53EBF8"/>
<path transform="translate(908,1140)" d="m0 0h1l1 158 1-8 1-2h2v-2l-2-1 2-3 2-15 3-4 3 3 2-1 2 1v-9l2-11 2-48h1v97h-1l-1 13-1 5-1 12-1 4v11h-2l1 4h-2l-1 5-2-4-3-5v-2h-2l1 73 1 13-1 8h2l1 5 16 2 10-1 11-2h16l8 1v2l9-1h6l3 1h14l6 1 5-1 1 2 2-1 4 3-1 1-121 1z" fill="#44AAE7"/>
<path transform="translate(1069,625)" d="m0 0h1l1 211 1 17h2l1-2 2 1 2 4 2 1v-2l3-1 2 11 1 7 1-2h2v-5l-1-1-3-31-1-23 2-8 1-10 2 4 1-22 1-147h1v325l-1 1h-20l-3-2z" fill="#52D9F2"/>
<path transform="translate(948,685)" d="m0 0h23l34 1 2 2 4 1 1-2v5 3l-59 1-14 24-12 21-10 17-12 21-15 26-12 21-15 26-12 21-9 16-2 1-50 1-3-3v-7l6-1h42l13-21 12-21 13-22 16-28 14-24 13-23 14-25 13-23z" fill="#55F1FA"/>
<path transform="translate(1185,1238)" d="m0 0h1v5l-10 11h-2v3h2l1 2 5-3v4h3v-2h2v-2h2v-2l3-3h2l-2 5h-2l-1 4h2l1 4-10 13 1 4 11 11 11 9 13 11 18 13 11 7 14 9 10 5-1 6-2 4-4-1-10-6-11-6-12-8-16-12-14-11-11-10-8-7-7-6-4 1-9 11-4 5-3 1 1-4-3-5-4 2h-3l1 7-2 2-3-1v-3h-8l1 6-5 1h-3l-7 1 1-4 13-15 8-10 9-11 12-14 4-4 7-3 8-11z" fill="#44AEE9"/>
<path transform="translate(407,633)" d="m0 0 4 3h2l1-2 14 25 12 21 15 27 14 25 13 23 14 26 10 18 14 25 25 45 12 21 6 11-1 7h-3l2 3h-2l-1 4-2-1 1-3-13-23-6-11-13-24-13-23-6-10-6-11-13-24-12-21-9-16-6-11-10-19-14-24-10-18-7-14-10-18-2-5h2v-3h-2z" fill="#49C9ED"/>
<path transform="translate(944,752)" d="m0 0 4 1 2 3-12 20-14 24-16 28-13 22-6 10-15 26-12 21-13 23-7 10 1 5 3 5v7l-6 9-6 5-9 1-7-3-6-7-3-8 2-9 4-5 7-4 12-1 29-49 16-27 13-23 9-15 15-26 13-22 11-20 2 1-2 4h2z" fill="#54EFF9"/>
<path transform="translate(334,612)" d="m0 0h21v76h-1v-75h-19v284l-7 8-8 7-5 6-7 6-1 2h-2l-1 8 1 1v19l-1 44v14h-2l1 12v12l-1 9v6l-1 5-1 12h-1l-1-16v-128l7-8 10-10h2l2-4 3-3 2-5 1-206h1l1 104 1-4v-6h2l-1-6v-77l1-15h2l1-69z" fill="#44A5E4"/>
<path transform="translate(1222,1226)" d="m0 0 7 6 16 15 8 7 18 14 17 11 16 10 16 8 22 10 30 10 26 7 36 6 27 3 6 1v8l-1 1h-18l-36-5-23-5-25-7-24-8-23-10-22-12-13-8-20-14-17-13-12-11-8-7-10-8 1-3h2v-2z" fill="#42B4EC"/>
<path transform="translate(1647,1398)" d="m0 0 4 2 4 1-1 4-6 2-1 3-6 1-6 4-7 2-12 5-3 3 2 1 1 1 5-1 3-2 8-1 2-2 10-1-2 1-1 4-2 1 2 3-18 7-27 8-30 7-13 2-16-1-1-3-2-2h-8v-4l2-2-2-2 4-3v-2l4-2 9-2 3 1v-2l6 1v-2l9-1 6-2h3l1-2 31-8 26-9z" fill="#44ACE8"/>
<path transform="translate(354,766)" d="m0 0h69v1h-68l1 133v152l2-1-1 4 1-1h2l2-27h1v130l-21 21-7 8-9 9h-2l-1 3-8 7-7 7h-2l-1 45-1 40-1 3-2 2 1 9h-2l-2-11-1-75-1-14 7-8 8-7 17-17 2-3h2v-2l8-7 7-8 5-4 1-3z" fill="#4579CF"/>
<path transform="translate(1074,983)" d="m0 0h8l11 4 8 6 5 8 2 9-1 11-6 10-8 6-7 3h-15l-10-5-7-7-3-7-1-5v-9l4-10 5-6 9-6z"/>
<path transform="translate(394,673)" d="m0 0 4 2 10 18 14 24 16 28 10 17 8 13 6 12 10 17 12 21 12 23 6 11 13 23 1 5-5 4-3-1-10-17-8-16 1-3 1 3h2v3h3l-1-6-3-1-1-3-3-1-2 2-6-8-14-25-10-18-7-12-4-8-3-4-15-1v-1h13l-2-4-4 2-7 1-2-3h-3v-3h14l-12-22-13-23-11-21-10-19-1-6z" fill="#4579CF"/>
<path transform="translate(1234,747)" d="m0 0h2v3h20l-1 7-6 17-6 25-2 15-1 15v11l2 20 4 22 6 20 8 18 9 16 11 16 10 11 4 7-4 6h-4l-7-9-10-12-7-11-10-17-8-18-6-18-6-29-1-7v-39l4-27 5-19 3-11h-23l2-5 3-5 7 1z" fill="#54EEF9"/>
<path transform="translate(961,624)" d="m0 0 2 2-40 72-14 24-14 25-14 24-8 14-14 24-13 23-14 24-5 6h-6l-1-5 5-7 6-11 15-27 9-15 11-19 16-27 14-25 12-21 11-20 9-16 13-23h6l1-3 3-1 7-13z" fill="#57EFF8"/>
<path transform="translate(554,1010)" d="m0 0 3 1 12 20 12 21 10 16 1 1 20 1-6-12 1-3 5 5 6 8v3h-2v2h-11v2l-8 1 1 2 22 2v1h-11l-10-1 3 7 11 19 14 24 14 25 13 21 5 9v3l-4-1 3 4-1 5h-3l-10-17-5-9-7-11-6-11-9-16-7-11-13-23-15-25-14-24-11-18-7-12-1-6z" fill="#44A5E5"/>
<path transform="translate(974,1212)" d="m0 0h7l7 4 4 6-1 9-6 8-1 1-1 79-3 6-13 13-1 5-1 70-2 7-3-1-1-6-1-40v-40l15-15v-78l-6-4-3-5v-9l4-6z" fill="#449FE1"/>
<path transform="translate(500,1022)" d="m0 0 5 5 5 9h3l3 4 2 3 5 9 2 6h2l6 9 5 9v2h2l-2-7-2-1h2l-4-6-3-7-1-1 1-7 4 2 2-1 12 21 14 24 15 26 10 17v3l-4-2-3-3v-3l-6 1 3 3 1 6-5-1-3-6-5-7-3-2-1-7h-2l-1 2-1-3h2l-2-4-2 3-7-12-4-5 1 4-5 2-14-24-8-14 2-1v-3h-2v-4h-2l-2-7-3-3-3-7-2-1v-7l-3-1-2-7-2-3z" fill="#44ACE8"/>
<path transform="translate(259,882)" d="m0 0h3l2 18 1 1 1-2h2l1-5h1v77l-1 12-2 5 1 5-2 5-4-2v-5-1-3l-4 1 1 8-3 14-3 4v21l-1 19-1 3h-2l-1-28v-72h1l1 26v4l1-7v-15l1-20v-12l1-11 1-9 3-21 1-9z" fill="#44AEE9"/>
<path transform="translate(1732,735)" d="m0 0v3l-1 5-13 19-12 17-16 24-10 14-16 24-4-1-11-12-10-10-10-8-3-3v-3l-1-3h-2v-2l-5-1-2-1v-2l-4-2 1-2 6 3 1 2 5 3 8 3 3 1v-8l-5-7-8-5v-2l-2-2 4 1 7 6 5 3 5 1h3l12 12h7l-2 6-3 4 1 4 6 4 1 2 4-5 7-3 6-9-5-3-1-8 6-8 1-8-6-2-1-4 1-4 2 4 9-5 1 2-1 9-2 3 1 6 5-5 6-7 3-7 5-5 7-11 4-3h2l2-4 7-8z" fill="#58F7FC"/>
<path transform="translate(1492,660)" d="m0 0 16 1 25 4 31 7 22 7h3l5-5 4-2h8l8 4 4 4 2 5v9l-4 8-6 5-4 1h-7l-6-3-5-5-4-11-24-7-31-7-29-4-16-1v-1l11-1-1-4v-3z" fill="#7DF0E9"/>
<path transform="translate(818,1048)" d="m0 0v3 3l1 4-1 7h3l2 3v5h5l-2 5-16 28-15 26-4 5-1-6h-2l-1-3 2-3-3 1-1 2h-4l-1-3h-2l2-6h2l1-7 6-8v-4l-6 10-6 11-5 8-3 5-8 14-3 5h-2v-5l10-17 14-24 15-27 14-25 1 2 2-1 2-4h2z" fill="#4BD1EF"/>
<path transform="translate(379,1230)" d="m0 0h10l6 4 5 6 1 4v8l-4 8-5 4-6 1 1 2v143l-2-4-1 13-2 1-1-4v-150l-8-3-4-5-3-7v-8l6-9 4-3z" fill="#4791D9"/>
<path transform="translate(1706,1371)" d="m0 0 1 2-7 6-4 5-8 6h-2l-1 3h-3v2h6l6-4h2v-2l5-1v-2l5-2v-2h3l1-3 4-3 2 1-1 2 3-1-1 3-4 4v3l-16 12-18 11-17 9-19 8-5-1 1-2h2l1-4-8 1-2 2-10 2-4 2h-5v-3l1-2 3-3 11-4 9-3 6-4h4l5-5 3-1v-2l-5-1v-3l19-10 11-7 10-7 2 1v6l5-5 7-3z" fill="#42BFF1"/>
<path transform="translate(383,812)" d="m0 0h56l12 22 12 21 13 23 15 27 28 49 9 15 1 5-5-1v-3l-3 1-1-3v4h-2l-7-12-6-10-16-29-14-24-15-27-13-23-12-22-2-2-37-1v-1h37l2-6 1-2h-53z" fill="#44B7EC"/>
<path transform="translate(1271,776)" d="m0 0 5 4-1 8-4 24v31l3 21 10 4 6 8 1 2v11l-6 9-6 3h-9l-7-3-5-6-2-6v-7l4-6 4-4v-8l-2-12-1-11v-17l2-18 4-22 2 4 1 4 1-1 1-4h-2l-1-3z" fill="#55EDF9"/>
<path transform="translate(930,1135)" d="m0 0h1v63l-2 48-2 14-1 6-5 1-2-3-2 3-2 15-2 3v4l-2 1v8l-2 1v-91l2-13 3-3 2-3 2 2 2-3 1 5 5 2-1-3 3-7 1-13z" fill="#42C1F2"/>
<path transform="translate(973,1142)" d="m0 0 7 6 2 4h2l7 8 20 20 2 3v93l-1 12v10l-1 18v93l1 7-2 4-3-1-1-101-1-30-1-98-4-6-6-7h7v-2h-2v-3l-3-1-7-8-9-10-7-7z" fill="#44AEE9"/>
<path transform="translate(1675,1318)" d="m0 0 1 4-4 5-3 6-3 3 5 1-6 7-15 13-16 11-14 8-24 11-28 9-29 6-15 2-2-3v-5l4-3 21-3 28-7 27-10 16-8 13-7 11-8 11-9 7-6 7-8z" fill="#43B6ED"/>
<path transform="translate(1298,787)" d="m0 0 4 3 1 1 3-4 1 5-3 12-1 9v32l2 13 5 15 8 16 8 12 9 9 14 11 17 10 1 2-3 6-3 1-17-9-11-9-7-6-9-11-10-15-7-16-5-19-2-14v-23l3-22z" fill="#54EEF9"/>
<path transform="translate(463,640)" d="m0 0 3 3 4 6 1 2-1 2 4 2 10 19 15 25 6 12 9 16 6 11 5 9 7 12 5 9 7 12 6 11 7 12 6 11h2l6 10 10 18 11 19 6 11 7 8v2h2l3 4-1 4h3l3 5-1 2v1l3 1 1 3 2 3 2 4-1 5-4-4-2-5 2 6 5 9 3 7 1 4-4-4-5-9-6-9-2-5-4-5-6-10-4-7-2-2-2-5-4-6-7-14-7-11-6-11-9-17-11-19-4-8-2-5-5-9-3-5-2-4-3-4-2-5-3-4-2-5-4-8-2-2-1-6-3-1-6-11-11-20-6-11-10-18-6-11-4-8-5-9z" fill="#58FCFD"/>
<path transform="translate(762,1168)" d="m0 0 1 4v2l-2 1-3 7-1 2h-2l1 4-2 3 1 5h2l-2 5-11 18-6 11-11 19h-2l1-9 1-5v-3h-2v3h-2l-1 5-2 1-1 3-7-1-3-8 1-7 24-42 3-3h4l2-5 4-7 2 1v2l-2 1-1 5-3 3-1 7-2 1-2 8h-2v4l3-1 1 1 2-7h2l2-7 1 3h2l2-6 8-15h2z" fill="#44AEE9"/>
<path transform="translate(623,1080)" d="m0 0 3 1v2h-2v2l5-2 2 2h3l13 23 8 13 6 11 11 18h2l6-11 11-19 6-9 9-16 7 3-1 6-10 17-17 29-10 17h-4l-6-9-10-18-6-10-8-13-11-19-9-15-1-2z" fill="#44A5E5"/>
<path transform="translate(418,1034)" d="m0 0h1l1 54h4l1-2 1 3h2l1 3 3 1 2 6 2-4 1-4h2v-28h1v38l-1 53-1 3v6h-4l-2-5-5-3-6 5h-1l-1-15-1-30z" fill="#44AEE9"/>
<path transform="translate(423,867)" d="m0 0 7 6 5 4 4 4 8 13 6 11 6 10 2 9 2 10-1 2-6-1-5-3-18-18-1-3-4-1-1 4-3 3h-2l-1-7-2-16v-26l2 3z" fill="#56FAFD"/>
<path transform="translate(1071,1209)" d="m0 0 6 4 5 2 1 5 3 2 2 3h2v-13h1l1 15v61l-3 2-2-1-2-10-6-1-2-1v3l-5 5h-2v-47z" fill="#4CD4F0"/>
<path transform="translate(1574,1254)" d="m0 0 1 3-2 4 2 3 1 3 6-2v-2l2 1-2 6-8 6 2 5 3-1 2 2-16 8-20 7h-8l-2-2 1-1-13-1v3h-2v-3l-1 2h-4l-1 2-9 1-3-1v-2l17-8 3 1v-6l7-1 2 1v-2l2-1 2-4 7-2 4-5 12-5 14-8z" fill="#4BD1EF"/>
<path transform="translate(770,905)" d="m0 0h7l8 4 6 9v8l-4 8-6 5-12 3-16 28h-3l1-5-4-1 1-5 10-18 1-1v-6l-3-6v-10l5-8 6-4z" fill="#54EDF9"/>
<path transform="translate(322,897)" d="m0 0v3l-5 6-8 7-9 9-1 2v132l1 3v-7l1-2v-11l1-9v-12l-1-4 1-2h2l-1-2v-24l1-32v-19l-1-3 2-6h1v180l2 4 4 2 16 16 1 5-2 10-2 4-4 1 1-2v-1l-2-10-6-8-16-16-2-7 1-182z" fill="#4790D9"/>
<path transform="translate(1240,1279)" d="m0 0h9l6 3 5 6 2 5v10l5 2 1 3-1 3h2v2l6 2 2 4 14 6 5 3-1 2h-3l-2-3-7-1-8-3-12-8-5-3-6 2-2 1h-10l-6-3-5-6-2-4v-10l5-8z" fill="#42B6ED"/>
<path transform="translate(777,973)" d="m0 0 7 3-1 6-7 11-13 22-9 16-14 25-8 14-2-2-6 4h3l-1 2h-2l-3 11-1 5-6 10-1-2-5-1-1-3 15-27 10-17 10-18 14-24 12-22 7-11z" fill="#44BCEE"/>
<path transform="translate(1180,1277)" d="m0 0 4 5 10 10 11 9 13 11 18 13 11 7 14 9 10 5-1 6-2 4-4-1-10-6-11-6-12-8-16-12-14-11-11-10-8-7-7-6-3-2h4l1-3 3-2-1-4z" fill="#4793DB"/>
<path transform="translate(382,813)" d="m0 0h1l1 65v150l1 95h3v-51l2-21h1v120l-39 39-7 8h-2l2-4 2-3h2l1-3h2v-2l5-4 2-3h2l2-4 2-3h2l1-3 11-13h2l1-5 2-3-2-1 1-1v-28l1-2h-2z" fill="#478BD7"/>
<path transform="translate(1338,1307)" d="m0 0 7 1 27 9 26 7 36 6 27 3 6 1v8l-1 1h-18l-36-5-23-5-25-7-9-3 3-1 6 2v-4l-9-3v-2h-6l-5-3-6-2z" fill="#478FD9"/>
<path transform="translate(1043,1175)" d="m0 0h1v115l-1 100-1 1h-5l-1-1-1-113v-36l1-37h1l1 51 2-4 1-15h1z" fill="#4AC5EB"/>
<path transform="translate(327,853)" d="m0 0 1 3 2 1h-2l1 11 1 9v3l-2 10-1 3h2l-1 4h4l-1 5-9 9-6 5-5 5-4 5h-2l-1 8 1 1v19l-1 44v14h-2l1 12v12l-1 9v6l-1 5-1 12h-1l-1-16v-128l7-8 10-10h2l2-4 3-3 3-9 1-36z" fill="#43AFEA"/>
<path transform="translate(1077,1277)" d="m0 0 8 2 2 5v5h2l1-6h1l1 5v45l-3 2v-5l-7-1-4-2-1 4-2 2-3 10-1 4h-1v-62l2-3h2v-2h3z" fill="#42C0F2"/>
<path transform="translate(502,797)" d="m0 0h3l40 72 12 21 6 11-1 7h-3l2 3h-2l-1 4-2-1 1-3-13-23-6-11-13-24-13-23-6-10-2-4-2-9v-6l1-2-2-1z" fill="#49C7ED"/>
<path transform="translate(1644,1307)" d="m0 0 3 1-4 2-2 5-3 4h-2l-3 6h-2v2l-4 2-4 5 4-2 3 1-15 10-27 13-30 10-25 4-5-1v-2l-10-1 1-2 18-3 13-3h3v-2l26-8 17-7 12-6 16-11 9-7 10-9z" fill="#43B5ED"/>
<path transform="translate(1186,756)" d="m0 0 4 1-4 16-4 21-3 28v20l2 21v7l-9 4-12 6h-2l-2-12v-7l2 1v7l5-3 3-1 4 4 3-3 1-11h-2l-2-3h-6l-4 12-2-3v-8h2v-21l3-2v3h2v7l2-2 2-8 3 4 3 10 1 1-3-21-1-5 4-40 3-3 1-5-1-5 2-3 3-3z" fill="#57F6FB"/>
<path transform="translate(354,766)" d="m0 0h69v1h-68l1 133v152l2-1-1 4 1-1h2l2-27h1v71l-1 33-2 12h-2l2 9-3 3h-2l1-5-1-22v-40l-1-15z" fill="#478CD7"/>
<path transform="translate(746,962)" d="m0 0 1 2 4 1-1 5h2l-2 5-14 24-15 27-12 20-12 21-2 3h-6-3l1-5 8-14 8-13 6-11 10-18 8-14 15-26z" fill="#43BDEF"/>
<path transform="translate(948,685)" d="m0 0h23l34 1 2 2 4 1 1-2v5 3l-59 1-11 18h-2l-8 14-5 7-5 9h-2v2h-3l1 3-5 2v-4l8-15 26-46z" fill="#71EDED"/>
<path transform="translate(355,767)" d="m0 0h68l2 3h3v2l9-1v-2l4 2v3l-13 1h-65v21l-1 35-1 4v10l-1 13-2-3-1-6 1-4-1-4 1-13h-2l-1-20z" fill="#44C3F1"/>
<path transform="translate(1522,1316)" d="m0 0 9 2 7 6v2h7l-2 3-4 2 1 3v7l-4 6-5 4-2 1h-12l-6-3-4-5-2-5v-9l3-6 7-6z" fill="#43B6ED"/>
<path transform="translate(562,904)" d="m0 0 7 1 9 1v3l5 3 4 8-2 13-2 7h-12l-11-2-5-6-2-5v-8l3-4h2l2-5-2-2 2-1 2 1z" fill="#53EEF9"/>
<path transform="translate(640,1044)" d="m0 0 2 4 3 2 2 3 1-5 4 5 12 22 8 13 2 1 2-5 9-16h3l1 2 4-1 1 3-9 16-8 13-5 5-4-5-6-11v-2h-2l-13-24-6-10-3-6h2l-1-3z" fill="#43AEE9"/>
<path transform="translate(1570,641)" d="m0 0 11 2 36 12 19 8-2 4 2 2 3-1 1 3 7 1 2 2 5 2 6 4 3 3h2l1 4-9-2-27-13-24-10-36-12z" fill="#79F2EB"/>
<path transform="translate(465,726)" d="m0 0 3 4 13 24 8 14 15 27v2l-2 1 1 3 1 13-4-5-13-24-12-21-9-16-6-11-3-6v-2h4l1 4z" fill="#48C1EC"/>
<path transform="translate(1201,1218)" d="m0 0 1 3-7 10-1 2h2v2h6l7-7 2 7-1 7-11 13-6 8h-2v-3h-2l1-4h2l2-5h-2l-1 3h-2v2h-2v2h-2v2h-2l-1 2v-3l-1-1-5 2v-3h-2v-3l7-6 4-5v-4l-9 11-3 4-6 2 2-5 12-14 8-10 8-5z" fill="#42BFF1"/>
<path transform="translate(519,965)" d="m0 0 2 1 1 4h2l1-2v4l4 2 1-2h36l4 4 14 25 4 6v3l-6 3-2-4-1-4-6-3-11-18-1-1-36-1-6-9z" fill="#43B6ED"/>
<path transform="translate(1035,613)" d="m0 0h1l1 22 2-6h2l2-16h1l-1 110h-7l-1-2z" fill="#57FCFE"/>
<path transform="translate(463,640)" d="m0 0 3 3 4 6 1 2-1 2 4 2 10 19 15 25 6 12 9 16 6 11 5 9 7 12 5 9 7 12 6 11 7 12 9 16-1 5-1 3-7-12-6-11-8-15-2-5-5-9-3-5-2-4-3-4-2-5-3-4-2-5-4-8-2-2-1-6-3-1-6-11-11-20-6-11-10-18-6-11-4-8-5-9z" fill="#88FFEB"/>
<path transform="translate(964,712)" d="m0 0h2l-1 137h-1l-1-81-2 3-1 6h-1v-8l-2-4-1-18-6 8-6-3-2 6h-2l1-7 15-25z" fill="#83FEEC"/>
<path transform="translate(1187,1085)" d="m0 0h6l8 5 3 3 2 6-1 7-4 6-4 3-9 1-7-3-5-7v-10l4-6z"/>
<path transform="translate(359,941)" d="m0 0 2 1v31l2 28v26l-2 31-2 1 1-5h-2v2l-2-1v-2h-1v-92l1-1 1-11v-4l-1-2h2z" fill="#42C1F2"/>
<path transform="translate(1502,1016)" d="m0 0h9l2 2 11 1 3 3 11 1 4 3 8 2 5 3 7 1 4 3 6 2v2h6l5 5h-2l-1 3-7-1-17-6-16-5-5-2-9-2-4-2-10-2-8-3-5-2-1-4z" fill="#88FFEB"/>
<path transform="translate(271,612)" d="m0 0h55l1 60 1-20h2v2h2v-7h1v34l-1 3h-2v98h-2l1 7-1 7-2-4-1-104v-75h-54z" fill="#43B3EB"/>
<path transform="translate(973,1142)" d="m0 0 7 6 2 4h2l7 8 20 20 2 3-1 45-1 28-2 1-1 14h-1l-1-13-1-67-6-8-5-6h7v-2h-2v-3l-3-1-7-8-9-10-7-7z" fill="#4BD0EF"/>
<path transform="translate(1613,1292)" d="m0 0 3 1-6 8-6 3-2 3h-3v4h-3 4l4 1-21 11-19 7-23 6-2-2-1-4 6-3-6-1v-1l16-3 16-5 17-7 14-8 11-9z" fill="#43B3EB"/>
<path transform="translate(1675,768)" d="m0 0h3l2 8 6 2-1 8-6 8 1 8 5 2-2 4-5 7-7 3-5 5v-3l-4-2-4-3 1-4 3-4 1-4-2-1 2-4 10-14 4-1z" fill="#85FDEB"/>
<path transform="translate(1417,684)" d="m0 0h10l6 3 5 6 2 6-1 10-3 4v-5l-5-1h-2l-4 3h-6l-4-4v-8h-2v5l-3-1v-3h-2l-1-7 4-5z" fill="#7BEEE9"/>
<path transform="translate(481,897)" d="m0 0h5l6 9 13 24 14 24 9 15 1 5-5-1v-3l-3 1-1-3v4h-2l-7-12-6-10-6-11v-5l-2-5h-2l-3-11-2-1-3-8-2-1v-2l-3-1z" fill="#4be"/>
<path transform="translate(1601,681)" d="m0 0 6 1 4 5v6l6 2h2l-2 5-7 7-4 1h-7l-6-3-5-5-4-11 3-1v-2l-3 1 1-3 4 1 1-3 3 1 2 3z" fill="#7DF1EA"/>
<path transform="translate(654,1186)" d="m0 0 7 3v2l6-2h10l4 5 3-1 4 8 1 13-2 5-4 4h-9v-2l-2-1 3-1v-2l4 1 2-4v-11l-4-2h-7l-4 4v6l3 5-2 1-2-1v-2l-4-2-3 1-1 2-1-8 1-11-1-2 1-4-3-2z" fill="#44ABE8"/>
<path transform="translate(391,923)" d="m0 0h1v93l-1 35-2 26v48l-1-2h-3l-1-5v-72l2 4 1-6-2-5 3-4 1-19 1-45z" fill="#43AFEA"/>
<path transform="translate(974,1212)" d="m0 0h7l7 4 4 6-1 9-5 7h-5l-2 1-10-1-5-7v-9l4-6z" fill="#54F3FB"/>
<path transform="translate(388,908)" d="m0 0 3 3v60l-1 45-1 20-3 4 2 5-2 7h-1l-1-6-1-25v-110h3v83l2-4 1-68-1-3 1-3-2-4z" fill="#42BFF1"/>
<path transform="translate(1236,1287)" d="m0 0h7l4 1v2l4 2 3 4v7l-2 2-1 5 3 3-4 2h-10l-6-3-5-6-2-4v-10l3-4 2 2v-2z" fill="#43B2EB"/>
<path transform="translate(578,907)" d="m0 0 5 2 5 6 2 5-1 9-3 5v5l8 13 12 21 1 7v5l-3 1-3-7-4-1-15-26-6-9-4-1-9-2-1-2 17 1 4 1v-6l2-6 1-8-3-6v-2l-5-2z" fill="#43B8ED"/>
<path transform="translate(625,1130)" d="m0 0h2l14 25 13 21 5 9v3l-4-1 3 4-1 5h-3l-10-17-5-9-7-11-6-11-3-6v-4l2-1v-4h-3v-2z" fill="#44A5E4"/>
<path transform="translate(961,624)" d="m0 0 2 2-25 45-12 21-4 2-2-1-1 3h-2l-1 4-1 3-4 1-1-2 9-17 9-16 13-23h6l1-3 3-1 7-13z" fill="#7EF9EC"/>
<path transform="translate(1234,747)" d="m0 0h2v3h20l-1 7-6 17-4 15h-2v-3h-4v2h-2v-8l6-21h-23l2-5 3-5 7 1z" fill="#5EEFF5"/>
<path transform="translate(777,973)" d="m0 0 7 3-1 6-7 11-13 22-9 16-1 2h-2l-2-6 2-4v-6l13-24 10-17z" fill="#53EBF8"/>
<path transform="translate(332,1371)" d="m0 0h6v2l4 1 3 5v12l-3 5-7 6-3 1h-9l-6-3-5-7-1-3v-8l2-5 5-4 4 1v1l2 1-3 1-1 4v8l3 3 5 2 5-1 3-2 1-9-3-6-3-3z" fill="#478FD9"/>
<path transform="translate(461,858)" d="m0 0 6 4 16 29 3 6-4 1v7l4 1-1 2 4 2 1 7 3 1 3 10 2 1v4l2 1-2 3-14-24-15-27-11-19v-6z" fill="#44B6EC"/>
<path transform="translate(711,1148)" d="m0 0 3 1-1 5-8 13 1 4-6 10-10 17 1 5v9l-2 4-1-2-1-13-3-6v-2l-4 2-3-5 6 1 11-19 11-18 3-5z" fill="#4798DD"/>
<path transform="translate(706,1095)" d="m0 0 7 3-1 6-10 17-12 20-4 3-4-1-2 3h-2l1-5 12-21 6-9z" fill="#44B6EC"/>
<path transform="translate(1186,756)" d="m0 0 4 1-4 16-4 21-3 28-1 3-1 13-2-1-2-13-1-5 4-40 3-3 1-5-1-5 2-3 3-3z" fill="#56F2FA"/>
<path transform="translate(1623,736)" d="m0 0 4 2v2l6 1 3 3 8 3 7 5h4l1-2 11 8 11 9-3 1 2 6v9l-3-1 1-4-14-12-14-10-25-15 1-2-2-2z" fill="#5EF2F7"/>
<path transform="translate(732,1108)" d="m0 0h3v3h2l1 6-9 15-17 29-5 8-3 1 1-4 8-14v-3h-4l2-5 15-26z" fill="#44ABE7"/>
<path transform="translate(394,673)" d="m0 0 4 2 10 18 14 24 1 5-3-4v-2h-2l-1 3-1-2h-2l-3-4 1 4-3-1-9-16-10-20v-4z" fill="#44AAE7"/>
<path transform="translate(358,774)" d="m0 0h4l1 7v15l-1 35-1 4v10l-1 13-2-3-1-6 1-4-1-4 1-13h-2l-1-20v-32l2 1z" fill="#42C1F2"/>
<path transform="translate(319,962)" d="m0 0h23l2 1v13l-1 3h-24l-1-2v-14z" fill="#44A6E5"/>
<path transform="translate(1681,1050)" d="m0 0 1 2 4 2 14 14 9 12-2 5-1 3-6-2-14-18-13-13h2l1-3z" fill="#457CD0"/>
<path transform="translate(655,1196)" d="m0 0h3l-1 16 3 1 1-2 4 3v2l3-1-3-4v-6l5-5h7l5 3v11l-3 4-4-1v2l-2 1 1 3h7l-3 2h-10l-8-4-4-5-1-3z" fill="#4692DA"/>
<path transform="translate(318,993)" d="m0 0h25l1 1v10l-1 5h-24l-1-1z" fill="#42BAEF"/>
<path transform="translate(1036,1287)" d="m0 0h1l1 65 1 1 1-7 1-29 2-1v74l-1 1h-5l-1-1-1-99z" fill="#43C4F2"/>
<path transform="translate(789,1008)" d="m0 0h7l2 1-2 6-12 22-5 9h-3l-4 7h-2l-1 5h-2l-2 6-4 6-4 1 2-6 6-10 5-8 6-10 7-15v-3z" fill="#4687D5"/>
<path transform="translate(319,1084)" d="m0 0h23l1 1v15l-23 1-2-1v-15z" fill="#4790D9"/>
<path transform="translate(318,1023)" d="m0 0h25v15l-1 1h-23l-1-1z" fill="#44A8E6"/>
<path transform="translate(1e3 1191)" d="m0 0h1l1 67 2-2 1-4 2-61h1v85l-1 12v8h-4l-1 2-1-24-1-1z" fill="#43A8E6"/>
<path transform="translate(319,1053)" d="m0 0h23l1 1v14l-1 1h-24v-15z" fill="#4796DC"/>
<path transform="translate(1241,670)" d="m0 0 3 1-15 15-13 17-4 6v3l-12 22-5 11h-2v-9l3-3v-6l6-10 6-12 14-18 9-9 5-2z" fill="#59F8FB"/>
<path transform="translate(1079,889)" d="m0 0 3 3 3 16v28l-2 3-2-1v-3h-5l-2-27 2-6 2-12z" fill="#88FFEB"/>
<path transform="translate(1091,774)" d="m0 0h1v96h-1l-2-6-3-31-1-23 2-8 1-10 2 4z" fill="#57FEFF"/>
<path transform="translate(1409,756)" d="m0 0 4 3v2l-16 5-14 7-12 9-8 9-4 8-1-2-4-2 2-7 7-8 11-9 20-10 9-2 5-2z" fill="#57F7FB"/>
<path transform="translate(952,686)" d="m0 0h53l2 2 4 1 1-2v5l-2 2-6-1-4-2-13 2-34 1 1-6-3-1z" fill="#57FCFE"/>
<path transform="translate(544,871)" d="m0 0 3 1 13 24 3 5-1 7h-3l2 3h-2l-1 4-2-1 1-3-13-23-5-10 2-6z" fill="#49C6EC"/>
<path transform="translate(1599,1374)" d="m0 0 3 1-15 6h-2l-2 5h-7l-1 3h-3l-3 2-4-1h-4v3l-3 1-3-1v2l-3-1-1-1h-10l1 3-3 4h6v1l-21 3-2-3v-5l4-3 21-3 28-7z" fill="#449BDF"/>
<path transform="translate(746,962)" d="m0 0 1 2 4 1-1 5h2l-2 5-14 24-4 7-3-3-3 3 1-7 2-5 1-4 12-21z" fill="#4BCDEE"/>
<path transform="translate(1384,640)" d="m0 0 6 1 2 1v2l2 1-26 6-25 8-19 8-6 2-2-2h2l2-4 8-5 12-5 13-3 6-3h13l-2-2 5-2 8 1 3-1-3-2z" fill="#58F0F8"/>
<path transform="translate(303,979)" d="m0 0h1v33h-2l1 12v12l-1 9v6l-1 5-1 12h-1l-1-16v-71l1 2z" fill="#44AEE9"/>
<path transform="translate(981,1237)" d="m0 0 4 2h-3v42l-2 8-2-1 1-2h-2v5l-2-3-1-50h6z" fill="#42C0F2"/>
<path transform="translate(362 1e3)" d="m0 0h1v25l-2 31-2 1 1-5h-2v2l-2-1v-2h-1v-42h2l1-6h3z" fill="#44AEE9"/>
<path transform="translate(1576,1349)" d="m0 0 3 1h-2l-1 3-5 1-1 2-2-1v2l-8 1-3 3h-3v2h-2v2l4-2 5 1-3 2-25 4-5-1v-2l-10-1 1-2 18-3 13-3h3v-2z" fill="#44ABE8"/>
<path transform="translate(481,897)" d="m0 0h5l6 9 13 24 4 7v3h-2l-1 2-5 1-2-4v-5l-2-5h-2l-3-11-2-1-3-8-2-1v-2l-3-1z" fill="#44BFEF"/>
<path transform="translate(1367,1320)" d="m0 0 14 3v2l2 1-4 1h5l1 1h5l1-2 4 1v-2l4 2-2 1 5 2 7 1h7v3l2-1 9 2 13 2-2 2h-13l-15-3-18-2-10-3v-2l-7-1-6-2-1-2-3-2h2z" fill="#44ABE8"/>
<path transform="translate(1320,992)" d="m0 0 6 1 19 10 2 3-5 8-16-8-7-3-1-5z" fill="#54EDF9"/>
<path transform="translate(623,1080)" d="m0 0 3 1v2h-2v2l5-2 2 2h3l13 23 1 2-1 2-5 1 1 5-4-4-14-25-5-8z" fill="#44A9E7"/>
<path transform="translate(385,910)" d="m0 0h2l3 7-1 4 1 5-1 66-3 3-1-5z" fill="#4CD4F0"/>
<path transform="translate(1035,613)" d="m0 0h1l1 22 2-6h2l2-16h1l-1 68h-1l-1-29-4 1-1 68h-1z" fill="#50D2F0"/>
<path transform="translate(1515,1326)" d="m0 0 2 1-2 1zm-1 2m-1 1h1v8h2l6 7 8 1v-2h2l2-8 5 1-1 6-2 5-5 4-2 1h-12l-3-1-1-4v-2l-2-4-3-1-1-7z" fill="#4BCBED"/>
<path transform="translate(1039,818)" d="m0 0 5 1-1 36h-7l-1-2v-34z" fill="#54E9F7"/>
<path transform="translate(1036,867)" d="m0 0h7l1 1-1 34-5 1-3-3v-32z" fill="#53E5F6"/>
<path transform="translate(1310,1359)" d="m0 0 10 3-2 9-5 15-4 1-7-4 1-5 4-11 2-7z" fill="#43B9EE"/>
<path transform="translate(319,935)" d="m0 0h24v11l-1 1h-22l-1-1-1-10z" fill="#4579CF"/>
<path transform="translate(607,976)" d="m0 0 3 4 12 21-1 4h-3l2 5-3 2-8-13-8-14-3-5 1-2 4 1v2l2 4h2l-1-7z" fill="#43B3EC"/>
<path transform="translate(1330,1368)" d="m0 0 7 1 4 2-1 9-5 14-9-2-2-3 5-19z" fill="#44A6E5"/>
<path transform="translate(1e3 777)" d="m0 0h1l1 48 2-4-1-4 2-9h1v35l-1 8h-2v24l2-1 1 6-4-3v12h-1l-1-18z" fill="#87FEEB"/>
<path transform="translate(963,1345)" d="m0 0h1v55l-2 1-1-4v7l1-2h2v11l-1 7-3-1-1-6v-53h1v6h2l-1-7 1-13z" fill="#44AEE9"/>
<path transform="translate(324,1377)" d="m0 0h8l5 3 1 2-1 9-6 4-6-1-5-3-1-2v-8z"/>
<path transform="translate(1182,889)" d="m0 0h9l8 4 6 7 2 4-1 4-7-3-14-3-4-2 2-9z" fill="#84FAEA"/>
<path transform="translate(1012,1276)" d="m0 0h1v140l-2-1-1-13v-94l1-13v-13z" fill="#4894DB"/>
<path transform="translate(297,796)" d="m0 0h8v33l-1 1h-6l-2-3z" fill="#42BBEF"/>
<path transform="translate(298,679)" d="m0 0h7l-1 44-5 1-1-1z" fill="#4579CF"/>
<path transform="translate(407,633)" d="m0 0 4 3h2l1-2 14 25 4 8-7-2-4-8v3 2l-3-1-11-21 2-1v-3h-2z" fill="#4AC9ED"/>
<path transform="translate(639,1161)" d="m0 0 3 1v5l1-1 4 3h3l9 16v3l-4-1 3 4-1 5h-3l-10-17-5-9-2-5h2z" fill="#4695DC"/>
<path transform="translate(464,876)" d="m0 0 6 1v3l5 4 4 4 1 4-2-1 1 5 2 1 1 8 4 1-1 2 4 2 1 7 3 1 3 10 2 1v4l2 1-2 3-14-24-15-27z" fill="#44A5E4"/>
<path transform="translate(1497,619)" d="m0 0 9 1 1 5-2 21-1 1h-6l-2-1-1-5z" fill="#5FEEF4"/>
<path transform="translate(1261,1293)" d="m0 0h1v10l5 2 1 3-1 3h2v2l6 2 2 4 14 6 5 3-1 2h-3l-2-3-7-1-8-3-12-8-7-4v-6l3-7h2z" fill="#44A3E3"/>
<path transform="translate(794,1085)" d="m0 0 2 1-2 5-2 4-3 3-2 6-4 6-6 11-5 8-3 5-8 14-3 5h-2v-5l10-17 14-24 12-21z" fill="#54DCF1"/>
<path transform="translate(1628,660)" d="m0 0 8 3-2 4 2 2 3-1 1 3 7 1 2 2 5 2 6 4 3 3h2l1 4-9-2-27-13-10-4 1-3h4v2l3-2v-3z" fill="#57EFF8"/>
<path transform="translate(1304,1333)" d="m0 0 4 1 11 5h4v2l9 2 4 3 1 3 2-3 5 1v2l4 1v3h2l1-3 4 3v2l6 2-3 1-10-2-25-9-12-5-1-3h4l-3-1-4 1-1-4z" fill="#44A7E5"/>
<path transform="translate(1375,1378)" d="m0 0 7 1 2 1v8l-3 15-5 2-5-2-1-3 3-13z" fill="#478ED8"/>
<path transform="translate(1521,622)" d="m0 0 7 1 2 4-3 22-2 1-8-3v-8l3-16z" fill="#5BECF6"/>
<path transform="translate(384,1239)" d="m0 0 7 3 2 5-1 6-5 4h-6l-5-3-1-2v-8l4-4z"/>
<path transform="translate(1736,1251)" d="m0 0h6l2 1-1 5-5 15-4 11-5 1-2-4 4-12 4-16z" fill="#457ED1"/>
<path transform="translate(519,965)" d="m0 0 2 1 1 4h2l1-2v4l4 3h-2v2l4 1 3 2h16l12-1 1 5-2-1-36-1-6-9zm10 7h35v2l-2 1h-11l-1 1h-7l-4 1-3-3-3-1 1 3h-2v-2h-3z" fill="#44A5E5"/>
<path transform="translate(688,1141)" d="m0 0 1 2-12 21-3 4-4-2-4-6 2-4 4-3 1-2 4-7 1 2h2l2-4 4 1z" fill="#44A3E4"/>
<path transform="translate(728,993)" d="m0 0 2 2-2 5v3l2-1-1 5-9 15h-4l-1 5-4 3 1 2-6 6h2l-2 4-4 2 2-9 14-24 9-16z" fill="#45C3F0"/>
<path transform="translate(418,846)" d="m0 0 3 3 10 19 5 8-1 2-10-8-2-2-2 4-1 4-1 20h-1l-1-49z" fill="#49C6EC"/>
<path transform="translate(383,812)" d="m0 0h56l6 11-1 4-2 2 1 9-3-4-6-10-1-1-37-1v-1h37l2-6 1-2h-53z" fill="#4498DE"/>
<path transform="translate(465,726)" d="m0 0 3 4 7 14v5l-4-3v2l2 1 2 7 2 1-1 3-2 2-8-14-6-11-3-6v-2h4l1 4z" fill="#44AEE8"/>
<path transform="translate(750,1078)" d="m0 0h2l-1 7-2 2-1 5h-3l2 2 2-1 2 2-12 20h-2l-1-3-2 1v-3l-1-3 8-14 6-10 1-3h2z" fill="#44BEEF"/>
<path transform="translate(578,907)" d="m0 0 5 2 5 6 2 5-1 9-3 5v5l2 3v8h-3l2 2-4 1-7-10-4-1-9-2-1-2 17 1 4 1v-6l2-6 1-8-3-6v-2l-5-2z" fill="#49C1EA"/>
<path transform="translate(691,1177)" d="m0 0 3 2 4-2 1 6-9 15 1 5v9l-2 4-1-2-1-13-3-6v-2l-4 2-3-5 6 1z" fill="#44A8E6"/>
<path transform="translate(685,1068)" d="m0 0h3l1 2 4-1 1 3-9 16-4 7-5-5-3 1-1-2h2l2-5z" fill="#44AAE7"/>
<path transform="translate(383,813)" d="m0 0h12l-2 3h2v2h6l-1 2h-8v10l-1 11-2-1v-4l-1 5h-2l-2-9v-8l-1-1z" fill="#49CCEF"/>
<path transform="translate(399,767)" d="m0 0h24l2 3h3v2l9-1v-2l4 2v3l-13 1h-22l-2-3-6-3z" fill="#43AFEA"/>
<path transform="translate(955,732)" d="m0 0 3 3 1 5v10h-2l-1-3-6 8-6-3-2 6h-2l1-7 11-18z" fill="#5AF0F7"/>
<path transform="translate(694,1119)" d="m0 0h2v2l2 1-1 2 1 4-8 13-4 3-4-1-2 3h-2l1-5 11-19 2 1z" fill="#44AAE7"/>
<path transform="translate(1656,1031)" d="m0 0 11 7 11 9 3 4h-4l-2 4-4-1-11-8 1-6h-2v-4l-4-2z" fill="#44B5EB"/>
<path transform="translate(1164,851)" d="m0 0h6l2 4h2v11l-5 4-3-3v-2l-5 4h-3l-1-7-1-2 2-2 2 3 3-9z" fill="#88FFEB"/>
<path transform="translate(683,1194)" d="m0 0 3 2 2 5 1 13-2 5-4 4h-9v-2l-2-1 3-1v-2l4 1 2-4v-11l-1-4v-3z" fill="#42BBF0"/>
<path transform="translate(807,748)" d="m0 0h2l-1 5-8 14-2 1-2 6-15 27-12 21-10 18-4 7-2-1 13-24 9-16 13-24 13-23z" fill="#7DECE7"/>
<path transform="translate(469,744)" d="m0 0 3 1 2 2 1-3 5 8 9 16 3 5-1 4-3-2-1 2-2-2 1-4-2-3-2 1-1-4h-2l-1 2-3-3v-5l2-2-3-1-1-7-3-1z" fill="#45C5F1"/>
<path transform="translate(1234,747)" d="m0 0h2v3l8 1 2 2v7l-26-1 2-5 3-5 7 1z" fill="#63F9F7"/>
<path transform="translate(1601,681)" d="m0 0 6 1 3 4v8l-3 4h-8l-4-5v-7z"/>
<path transform="translate(607,1111)" d="m0 0 1 3 7 1 2 5h2l1-2 6 10-1 3h-3v2h3l1 6-4 2-9-16-6-9-1-4z" fill="#4694DB"/>
<path transform="translate(1708,1081)" d="m0 0 5 5 10 14-1 3-4-3-1 2-4-2-3-1v2h-6l4-1-4-8-3-4 1-3 4 3-1-4h2z" fill="#45C2F0"/>
<path transform="translate(825,945)" d="m0 0h6l4 4v8l-5 5-6-1-4-4-1-6 5-5z"/>
<path transform="translate(1520,1327)" d="m0 0h6l4 4 1 7-5 5h-6l-5-6v-6z"/>
<path transform="translate(1686,1188)" d="m0 0 5 1 4 5-1 7-2 3h-9l-3-3-1-8 4-4z"/>
<path transform="translate(1419,694)" d="m0 0h7l4 4v8l-5 4h-6l-4-4v-8z"/>
<path transform="translate(1222,1226)" d="m0 0m-1 2 4 4v2h2v2l3 1 7 8 5 4v2h2v2l-3-1v-2l-4 1 2 2-4-1-12-11-8-6 1-3h2v-2z" fill="#42BBF0"/>
<path transform="translate(670,1200)" d="m0 0h7l3 2 1 6-2 5-3 3h-5l-6-5v-6z"/>
<path transform="translate(732,1108)" d="m0 0h3v3h2l1 6-9 15-4 5v-3h-3v-2h2l-1-9z" fill="#44B3EA"/>
<path transform="translate(640,1044)" d="m0 0 2 4 3 2 2 3 1-5 4 5 7 13v2l-5-1-3 4-9-15-4-8h2l-1-3z" fill="#43AEE9"/>
<path transform="translate(332,647)" d="m0 0h1v34l-1 3h-2v21h-2v-53h2v2h2z" fill="#42C1F3"/>
<path transform="translate(1666,1336)" d="m0 0 5 1-6 7-15 13-7 4h-3l-1 2-9 5-2 1 1-4 13-9 11-8 5-5 3-1 2-4z" fill="#49C2EA"/>
<path transform="translate(750,1018)" d="m0 0 2 2-1 4-1 5 2 6-8 13-7 2 2-5 1-3-1-5 10-17z" fill="#4CCFEF"/>
<path transform="translate(1243,1289)" d="m0 0 6 1 3 4v6l-5 5-7-1-4-5 1-5 4-4z"/>
<path transform="translate(958,1373)" d="m0 0h1l1 40 1 6 2 1v-6l1-1 1-13h1v22h39l1-4v5h-33l-1 2h-3v-2l-5 2-5-2h-26v-1h25z" fill="#4682D3"/>
<path transform="translate(1269,876)" d="m0 0h9l3 4 1 5-3 5-2 1h-6l-5-5 1-8z"/>
<path transform="translate(1425,953)" d="m0 0 5 3 2 6-3 5-2 2h-6l-5-5v-6l4-4z"/>
<path transform="translate(961,624)" d="m0 0 2 2-25 45-12 21-1-4 2-1 2-5 16-30-4 2-1-2 1-2-2-1 2-3h6l1-3 3-1 7-13z" fill="#57F2FA"/>
<path transform="translate(772,915)" d="m0 0 6 1 3 5-1 7-4 3-6-1-4-4-1-3 3-6z"/>
<path transform="translate(571,915)" d="m0 0 5 1 3 4-1 7-5 4-5-1-4-4-1-5 5-5z"/>
<path transform="translate(738,1039)" d="m0 0 3 4-4 7h2l1-2 4 1-6 10-3-1-2 5-7 4-1-5 10-18z" fill="#42BFF1"/>
<path transform="translate(964,753)" d="m0 0h1v96h-1l-1-81-2 3-1 6h-1v-8l-2-4v-9l5-2v2h2z" fill="#73FBF1"/>
<path transform="translate(391,923)" d="m0 0h1v93l-1 21-2-2v-32z" fill="#4493DC"/>
<path transform="translate(400,613)" d="m0 0 3 1 6 11 4 7v4h-2l-1 2-2-4-1 2h2v3l-3-1-8-14 1-7z" fill="#52E8F7"/>
<path transform="translate(1526,1393)" d="m0 0h15l1 3-3 4h6v1l-21 3-2-3v-5z" fill="#43AEE9"/>
<path transform="translate(359,941)" d="m0 0 2 1v42l-1 4h-3v2h2l-1 3v-2h-2v-4h2v-3h-2v-5-2-10l1-2-1-5 1-11v-4l-1-2h2z" fill="#4CD4F0"/>
<path transform="translate(388,720)" d="m0 0h3l2 4-2 9-4 5-4 1-3-3v-9l5-5z" fill="#43B4EC"/>
<path transform="translate(1613,1292)" d="m0 0 3 1-6 8-6 3-2 3h-3v4h-3 4l4 1-5 3-9 3-7 1 1-3 6-2 1-4 5-5 14-10z" fill="#4ACBEE"/>
<path transform="translate(1036,1287)" d="m0 0h1l1 93 1 2 3-1 1-4v13l-1 1h-5l-1-1-1-99z" fill="#44B2EA"/>
<path transform="translate(1338,1307)" d="m0 0 7 1 23 8 1 2-2 4 2 4 13 3v1l-8-1-19-6 3-1 6 2v-4l-9-3v-2h-6l-5-3-6-2z" fill="#4696DC"/>
<path transform="translate(443,702)" d="m0 0 2 4 3-1 2 5 2 6 3 1 3-1 1 3h3l3 6v5l-1 3h-2l-3-3-3-1-13-23z" fill="#44BDEF"/>
<path transform="translate(1549,1357)" d="m0 0 4 1-16 4-33 5h-54l-20-2v-1h11l11 1h37l35-3z" fill="#457BD0"/>
<path transform="translate(385,822)" d="m0 0 1 2h-2l2 26v49h-2l-1-3v-73z" fill="#43B2EB"/>
<path transform="translate(1037,645)" d="m0 0h1l1 7h2l1 2v27l-2 2v-2h-2l-1-8h-1v-20z" fill="#88FFEB"/>
<path transform="translate(1355,1376)" d="m0 0h6l1 3-5 18-5 1-2-1 1-11 2-3v-6z" fill="#4478CD"/>
<path transform="translate(789,1008)" d="m0 0h7l2 1-1 2h-2l-2 5-2 2-3 7h-2l-1 4-4 6h-2l-2 2 1-5 5-10v-3z" fill="#457BD0"/>
<path transform="translate(297,764)" d="m0 0h8l1 1v9l-1 9h-7l-1-1z" fill="#44A1E2"/>
<path transform="translate(607,1055)" d="m0 0 5 5 6 8v3h-2v2h-11v2l-9-1-2 2-4-6 1-2 1 1 20 1-6-12z" fill="#4790D9"/>
<path transform="translate(1036,739)" d="m0 0h6l2 4-1 17h-6l-2-2v-18z" fill="#54E8F7"/>
<path transform="translate(1012,1191)" d="m0 0h1v85l-2 8-1-4 1-19-3-2 1-3 1-4z" fill="#42BDF0"/>
<path transform="translate(388,908)" d="m0 0 3 3v60l-1 21-2-2 1-68-1-3 1-3-2-4z" fill="#42C0F2"/>
<path transform="translate(965,1330)" d="m0 0 2 3-4 8-1 25h-2l-1 7h-1v-40l6-1z" fill="#4793DA"/>
<path transform="translate(783,1021)" d="m0 0v3l-8 16-12 21-4 5-2 7-1-3h-2l2-5 14-24 11-19z" fill="#47BAEB"/>
<path transform="translate(1008,734)" d="m0 0 4 1-1 12-2 1v4h2v20l-1-2h-2l-2-6v-27h2z" fill="#85FEEB"/>
<path transform="translate(1247,1250)" d="m0 0 4 2 12 10 17 12 1 5h-3v-2l-6-2-3-3-2-1v-3l-4-1v-2l-5-2-8-6-4-6z" fill="#45A2E3"/>
<path transform="translate(1549,629)" d="m0 0 4 1-3 21-2 1-7-2 1-9 2-1 2-5 2-1v-3z" fill="#47c"/>
<path transform="translate(384,910)" d="m0 0 2 1v79l-2 11h-1v-90z" fill="#43B3EC"/>
<path transform="translate(269,750)" d="m0 0h1v43l-3-1 1-6-2-1-1-27 3-3z" fill="#42C1F3"/>
<path transform="translate(348,597)" d="m0 0h5l-5 5-5 2-1 3h8l4 1-1 4h-17l3-2v-3l-2-1-1-4-2-2z" fill="#42C1F3"/>
<path transform="translate(981,1237)" d="m0 0 4 2h-3v26h-2l-1 3-2-10 1-10h-3l-1-10h6z" fill="#4BD2EF"/>
<path transform="translate(303,979)" d="m0 0h1v19l-1 10h-5v-27l1 2z" fill="#43B0EA"/>
<path transform="translate(355,808)" d="m0 0h1l1 18-1 2h2v16l1 2-2 10v25l1 5-2 1-1-4z" fill="#43B0EA"/>
<path transform="translate(545,1106)" d="m0 0h2l3 10-1 2h2v2h2v5l2 1 3 5 1 5h2v3h2l4 8 2 2v4l-3-1-14-25-9-16v-4z" fill="#44A2E3"/>
<path transform="translate(318,963)" d="m0 0h12l8 1-4 1v3l-4 2-1 2h-2v-3h-2l-2 6-2 3-3-1z" fill="#42B8EE"/>
<path transform="translate(305,926)" d="m0 0h1v58l-1 28-2-2v-24l1-32v-19l-1-3zm-3 86h2l-1 2z" fill="#4794DB"/>
<path transform="translate(1153,1297)" d="m0 0 3 4 1 3v2l-3 9-4 2-3-2v-3l-1-5v-7z" fill="#4794DB"/>
<path transform="translate(730 1e3)" d="m0 0 1 4-14 25-8 13-7 12-1-4 5-10h2l2-6 5-8 6-12 3-3 3-7z" fill="#48BCE9"/>
<path transform="translate(1622,1331)" d="m0 0 2 2 3-1 3 1-15 10-8 4h-7v2l-3-1 2-1v-2l7-3 3-3 5-1v-2z" fill="#49C4EB"/>
<path transform="translate(1006,1274)" d="m0 0h1l1 22 4 1-1 19-1 5-3-1-1-2-1-30z" fill="#43B4EC"/>
<path transform="translate(319,962)" d="m0 0h23l2 1v13l-1 2h-11l2-1 1-4 4-3-2-4 1-2-19-1z" fill="#43ABE8"/>
<path transform="translate(964,712)" d="m0 0h2l-1 40h-1l-1-15-3-1 2-1 1-4-1-2-7 2 1-5z" fill="#56EAF7"/>
<path transform="translate(340,1053)" d="m0 0 3 1v14l-1 1h-24l1-4v3l17-1-2-4 2-6-2-3z" fill="#4790D9"/>
<path transform="translate(1623,736)" d="m0 0 4 2v2l6 1 3 3 8 3 6 5-3 4-25-15 1-2-2-2z" fill="#59F0F8"/>
<path transform="translate(1206,814)" d="m0 0h9l-1 13-1 2h-7l-1-5v-9z" fill="#478ED8"/>
<path transform="translate(355,624)" d="m0 0h3v45l-3 1z" fill="#44C5F2"/>
<path transform="translate(297,796)" d="m0 0h8v33h-1l-1-23-3 7h-1l-1 5h-1z" fill="#44A1E2"/>
<path transform="translate(327,853)" d="m0 0 1 3 2 1h-2l1 11 1 9v3l-2 10-1 3h2l-1 4h4v4h-5v-4h-2l1-43z" fill="#42C0F2"/>
<path transform="translate(372,597)" d="m0 0 14 2 5 3-1 2-4 1h-7l-2 2h-6v3h-5l-1-2 3-3 6-2 1-1-3-3z" fill="#42C1F3"/>
<path transform="translate(1209,784)" d="m0 0h7l3 1-1 4-2 4v6l-1 1h-6l-1-1z" fill="#48BBEB"/>
<path transform="translate(1011,736)" d="m0 0h2l1 9v20l-1 26h-1l-1-20v-19l-3 1v-8l2 2z" fill="#68FEF7"/>
<path transform="translate(574,990)" d="m0 0h4l9 16 1 4-6 3-2-4-1-4-6-3 3-1-1-4h2l-2-4z" fill="#44B0EA"/>
<path transform="translate(479,765)" d="m0 0h2l1 4 1-2 3 1 1 4h-2l2 4 5-1 2 4-1 1 1 4-3-2-2 5-4-5-8-14 1-2z" fill="#43B2EB"/>
<path transform="translate(873,676)" d="m0 0 1 3-12 22-6 10-7 14-1-4 7-13 2-6v-3l3-3 3-6 3-1 2-5z" fill="#76E2E6"/>
<path transform="translate(1282,1279)" d="m0 0h6l16 10 10 5v1h-9v-2l-7-2v-2l-5-1-6-4-4-1 1-2h-2z" fill="#44AAE7"/>
<path transform="translate(355,767)" d="m0 0h31v2h-21v3 1l9 1v1h-11v6h-1v-7l-3 1-2 3-2-2z" fill="#43B8EE"/>
<path transform="translate(1261,1293)" d="m0 0h1v10l5 2 1 3v4h-2l-1 1-3 1-6-3v-6l3-7h2z" fill="#43ADE8"/>
<path transform="translate(1222,1228)" d="m0 0 5 2 8 8 8 7 5 5-1 3h-3v-2h-2v-2l-4-2-11-11v-2h-2z" fill="#44ACE7"/>
<path transform="translate(630,1096)" d="m0 0 4 1v3l4 1 1 3 1-3 3 4 2-1 3 6-1 2-5 1 1 5-4-4-9-16z" fill="#4691DA"/>
<path transform="translate(1439,629)" d="m0 0h10v9l-2 1h-13l2-2-2-4 2-2z" fill="#5FEEF4"/>
<path transform="translate(1736,1141)" d="m0 0 5 1 3 11-1 4-5 2-2-2-2-9v-6z" fill="#468AD6"/>
<path transform="translate(1742,1196)" d="m0 0h7l1 5-1 9-1 1h-6l-1-4-1-10z" fill="#4581D3"/>
<path transform="translate(383,812)" d="m0 0h56l6 11v2h-2l-2-4-2 2-5-3 1-5 1-2h-53z" fill="#45A4E3"/>
<path transform="translate(1236,1287)" d="m0 0h7l4 2-8 3-3 6-6-4 1 8-2 4-2-4v-10l3-4 2 2v-2z" fill="#45A1E3"/>
<path transform="translate(1651,756)" d="m0 0 6 1 2 4 6 1v2l5 2 4 4-2 4-4-2-14-11-3-2z" fill="#74F2ED"/>
<path transform="translate(754,1153)" d="m0 0h1v7l-5 7-1 5-3 2-5 9-4 1 1-4 12-21z" fill="#4FC7EC"/>
<path transform="translate(959,1422)" d="m0 0 5 2 5-1h4 6l1 3 5 1v1l-15 2-12-3v-4z" fill="#44AFEA"/>
<path transform="translate(1644,1307)" d="m0 0 3 1-4 2-2 5-3 4h-2l-3 6h-2v2l-4 2-1 2-3-1 1-6 9-7 10-9z" fill="#4ACDEF"/>
<path transform="translate(605,1073)" d="m0 0h13l2 4h-2v2l-8 1-13-1-1-4h9z" fill="#42BCF0"/>
<path transform="translate(258,715)" d="m0 0 3 1 1 6v10l-2-4 1-4-2 2 1 5-3 7-1 9-3 3v-9-3l3-15 1-2z" fill="#42C1F2"/>
<path transform="translate(711,1148)" d="m0 0 3 1-1 5-6 10-6 2-3 3v-3l10-17z" fill="#469CDF"/>
<path transform="translate(248,590)" d="m0 0 3 1h-2l1 2h5l-3 12-1 8h-1l-1 43h-1z" fill="#56FDFE"/>
<path transform="translate(966,1336)" d="m0 0 1 2-1 5-1 70h-1v-11h-2v5l-2-3v-7l2-1 1 2v-54l2-7z" fill="#4792DA"/>
<path transform="translate(595,969)" d="m0 0 2 1 4-1 2 2h2l2 4v10l-3 1-3-7-4-1-2-3z" fill="#43BAEF"/>
<path transform="translate(1741,1224)" d="m0 0h5l2 4-2 10-1 1h-6l-1-4 1-9z" fill="#468BD7"/>
<path transform="translate(1739,1169)" d="m0 0h7l1 1 2 12-4 2-4-1-1-1z" fill="#4579CF"/>
<path transform="translate(1700,1071)" d="m0 0 4 2 5 8-2 4-1 3-6-2-6-8 1-3 5 4 2-4z" fill="#4692DA"/>
<path transform="translate(397,813)" d="m0 0h39v4l-4 3h-2v-2h-5l3-2-9-1-4 1h-15l-3-1z" fill="#4BD2EF"/>
<path transform="translate(444,825)" d="m0 0h2l8 14-1 3-7-1v-4l-2-1-1 2-2-10 3-1z" fill="#42B7EE"/>
<path transform="translate(501,1037)" d="m0 0h2v2h2l1 4 4 1 3 7h2l2 6v4h2v4h2v3l-3-1-11-19z" fill="#45BDEE"/>
<path transform="translate(298,736)" d="m0 0h7v14l-1 1h-6l-1-13z" fill="#4579CF"/>
<path transform="translate(1042,1316)" d="m0 0h1v60l-2-3v-22l1-3h-2l1-31z" fill="#43B7EE"/>
<path transform="translate(1345,1313)" d="m0 0 10 2v2h5l6 3-2 1v3l-13-2v-2l-5-1z" fill="#42B9EF"/>
<path transform="translate(1008,729)" d="m0 0 7 2-1 14h-1l-1-9h-3l-3 1v40h-1v-47z" fill="#4CD1F2"/>
<path transform="translate(430,668)" d="m0 0 4 4-1 4-2-2 2 6 2 4 2 1 1 6-3 1-9-16-2-6 4-1 2 1z" fill="#45B1E8"/>
<path transform="translate(1237,1249)" d="m0 0 4 1 5 6 4 2 2 7 2-3 6 4-2 2-3 1-11-9-7-6-1-4z" fill="#44A7E6"/>
<path transform="translate(533,973)" d="m0 0 4 1 3 2 5-1h5l4-1 5 1-2 2 1 2h-27l-4-2v-2l5-1z" fill="#42C1F3"/>
<path transform="translate(1689,767)" d="m0 0 2 2-1 9-2 3h-2l-1-3-6-2-1-4 1-4 2 4z" fill="#57FAFD"/>
<path transform="translate(1708,1081)" d="m0 0 5 5 4 6-2 2h-3l-1 2-6-4-4-4 1-3 4 3-1-4h2z" fill="#44ADE8"/>
<path transform="translate(358,816)" d="m0 0 2 4v4l2-4v11l-1 4v10l-1 13-2-3-1-6 1-4-1-4v-14z" fill="#4CD4F0"/>
<path transform="translate(326,759)" d="m0 0 2 3h2v20h-2l1 7-1 7-2-4z" fill="#42C2F2"/>
<path transform="translate(764,1141)" d="m0 0h2l-1 5h-2l-1 7-3 1-1 6-3 5-5 7h-1l1-7 4-5v-8l2-2v3l2-1z" fill="#45B3EA"/>
<path transform="translate(355,900)" d="m0 0 2 3v7 3 31l2 4-1 5-1 7-2 1z" fill="#43B5ED"/>
<path transform="translate(1206,844)" d="m0 0h8l1 1v10l-2 2-5-1-1-1z" fill="#45ADE7"/>
<path transform="translate(1590,682)" d="m0 0 3 1 2 4v6l-6 2v2l-3-1-2-8h3v-2l-3 1 1-3 4 1z" fill="#58F2FA"/>
<path transform="translate(735,1058)" d="m0 0h2l-1 5-4 7-2-2-6 4h3l-1 2h-4l-2 4h-3l2-5 5-9 3 2 6-4z" fill="#46BBEB"/>
<path transform="translate(646,1240)" d="m0 0h57v1l-14 1-34 1-9-2z" fill="#4579CF"/>
<path transform="translate(716,1017)" d="m0 0 1 2 2 1v2h-3l-1 5-4 3 1 2-6 6h2l-2 4-4 2 2-9 10-17z" fill="#49C6ED"/>
<path transform="translate(669,1020)" d="m0 0h2l1 2h3l1 4-1 2h2l1 4-4 6-3-1-3-5 1-7 1-1z" fill="#44BBED"/>
<path transform="translate(298,953)" d="m0 0 2 2v7h2v5 2l1 10-2 4h-2l-1-2z" fill="#42C1F3"/>
<path transform="translate(1463,1334)" d="m0 0h4v8l-1 1-12-1v-2h-3v-2l6-2 4-1 2 1z" fill="#4794DB"/>
<path transform="translate(1255,1292)" d="m0 0 3 1 1 7-2 5-1 7-5-1-1-2 1-6h3l-1-10z" fill="#4BD1EF"/>
<path transform="translate(648,981)" d="m0 0 4 2 3 7 8 13v4h2v3h2l1 6h-2l-9-15v-3h-2l-6-14z" fill="#42C1F3"/>
<path transform="translate(1165,1257)" d="m0 0 2 1-3 4-2 4-2 3h-3v3l-10 10-2 3-3-1 9-11 12-14z" fill="#4CC4EC"/>
<path transform="translate(1155,805)" d="m0 0h1l1 16v37l-2-1-1-22v-16z" fill="#53EBF9"/>
<path transform="translate(795,1010)" d="m0 0h2l-1 5-12 22-3 5-3 1 3-9 3-5 2-4 3-3 2-5 2-2z" fill="#4694DB"/>
<path transform="translate(1551,1392)" d="m0 0 3 1-1 1 2 1-1 3-4 2h-11l2-5v-2z" fill="#42BCF0"/>
<path transform="translate(777,1044)" d="m0 0 1 3-6 11-8 14-1-2-2-1 6-11h2l1-5h2l2-6z" fill="#44ADE8"/>
<path transform="translate(1338,1346)" d="m0 0 6 1v2l4 1v3h2l1-3 4 3v2l6 2-3 1-10-2-6-2-1-2-4-2z" fill="#44A4E4"/>
<path transform="translate(318,993)" d="m0 0h1l1 12h2l5-1v2h6l3-1 7 2v2h-24l-1-1z" fill="#44A6E5"/>
<path transform="translate(1633,810)" d="m0 0 10 5 6 7 6 2-2 1-1 2-6-2-7-7-5-4z" fill="#79EFEA"/>
<path transform="translate(410,711)" d="m0 0 4 4v2l6-1 6 8-1 2-4-2h-3l-3-3v3h2v3h-2l-5-10v-4z" fill="#4791DA"/>
<path transform="translate(481,755)" d="m0 0 4 5 7 13-1 4-3-2-1 2-2-2 1-4-2-3-2 1-1-5v-2l-1-5z" fill="#4AC8EC"/>
<path transform="translate(1374,1393)" d="m0 0 7 2v8l-5 2-5-2-1-3 2-1z" fill="#44A7E6"/>
<path transform="translate(1e3 690)" d="m0 0 4 2 2 2h-52v-1l34-1z" fill="#86FEEB"/>
<path transform="translate(588,943)" d="m0 0 3 4 3 6-1 2-3 2-1 6-3-4-3-6 2-1v-3l3 1-1-5z" fill="#44B5EB"/>
<path transform="translate(973,1318)" d="m0 0 2 4-2 6-2 2h-6l-1 3h-3l-2 2 1-4 9-9z" fill="#469ADE"/>
<path transform="translate(1367,1320)" d="m0 0 14 3v2l2 1-4 1h5l1 3-10-2-6-2-1-2-3-2h2z" fill="#42B9EF"/>
<path transform="translate(1244,1253)" d="m0 0 5 1 4 5 10 6v2l4 1-1 3-10-2 2-2-4-4 1 1-3 1-2-5v-2l-5-2z" fill="#42BAEF"/>
<path transform="translate(946,651)" d="m0 0 1 4-9 16-12 21-1-4 2-1 2-5 16-30z" fill="#52DAF2"/>
<path transform="translate(638,1152)" d="m0 0 4 4 6 10v5l-4-4h-3v-5l-2-1v4h-3v-4h2l-1-8z" fill="#44A9E6"/>
<path transform="translate(809,1055)" d="m0 0 1 2 5-2-3 6-3 1-1 5-3 3h-2l-1 4-1 3h-2l1-6z" fill="#4DD3F0"/>
<path transform="translate(776,804)" d="m0 0 2 1-8 16-3 4-6 12-4 7-2 3-2-1 13-24 9-16z" fill="#74E2E7"/>
<path transform="translate(1384,640)" d="m0 0 6 1 2 1v2l2 1-18 4h-3v-2l-3-2 5-2 8 1 3-1-3-2z" fill="#58EAF6"/>
<path transform="translate(653,1059)" d="m0 0h2l4 7v2l-5-1-3 4-6-11h2v2z" fill="#44A8E6"/>
<path transform="translate(1651,1349)" d="m0 0m-1 1m-1 1 1 4h-2l-1 4-4 2h-3l-1 2-9 5-2 1 1-4 13-9z" fill="#4AC9ED"/>
<path transform="translate(1732,1269)" d="m0 0 4 3-1 9-2 3-5-1-1-3 2-5h2z" fill="#478BD7"/>
<path transform="translate(1038,794)" d="m0 0 5 1v10l-1 1h-5l-1-1v-10z" fill="#51DEF4"/>
<path transform="translate(1326,1342)" d="m0 0 7 1 3 3 1 5 5 1-3 1-16-6-1-3h4z" fill="#44A3E4"/>
<path transform="translate(1675,1318)" d="m0 0 1 4-4 5-3 6-8 4-1-2 7-8z" fill="#46C0EE"/>
<path transform="translate(385,822)" d="m0 0 1 2h-2l2 26v10l-1 2h-2v-39z" fill="#43B1EB"/>
<path transform="translate(1751,1306)" d="m0 0h2l-2 4-2 7-3 3-4 6-3-1 4-9 5-9z" fill="#4DD6F1"/>
<path transform="translate(388,908)" d="m0 0 3 3v36h-2v-25l-1-3 1-3-2-4z" fill="#43C3F2"/>
<path transform="translate(1185,1238)" d="m0 0h1v5l-10 11h-2l-2 4-4 4-2-1 4-5h2l2-4 8-11z" fill="#46A0E1"/>
<path transform="translate(318,1373)" d="m0 0 4 1v1l2 1-3 1-1 4h-2v5l-6-2 1-7z" fill="#4792DA"/>
<path transform="translate(1561,1388)" d="m0 0m-10 1h10v4l-3 1-3-1v2l-3-1-1-1h-15v-1z" fill="#44AFEA"/>
<path transform="translate(677,1155)" d="m0 0 2 1-1 6-4 6-4-2-1-5 3-4 3 1-1 2h2z" fill="#44A8E6"/>
<path transform="translate(580,1126)" d="m0 0 3 4 5 8v3l-4-2-3-3v-3h-7l1-5h4z" fill="#45A1E2"/>
<path transform="translate(940,713)" d="m0 0 2 2-11 19-5 9-2-4 11-18z" fill="#50DBF3"/>
<path transform="translate(716,1028)" d="m0 0 2 1-2 5-14 24-1-4 5-10h2l2-6z" fill="#48BBE8"/>
<path transform="translate(684,977)" d="m0 0h2l-3 10-4 6h-2l-1-5-1-2 4-5h4z" fill="#44C1F0"/>
<path transform="translate(312,909)" d="m0 0 1 3 2 1-2 6-3 3h-3l-1-3-2-2z" fill="#44C0F0"/>
<path transform="translate(831,705)" d="m0 0 4 1-2 9-4 6-3-2h3l-3-3 2-6z" fill="#6CF2F1"/>
<path transform="translate(365,699)" d="m0 0h2v2h2l1-2 2 1v3l4 2 1 2 2 3-7 1-6-7z" fill="#54EFFA"/>
<path transform="translate(1566,1424)" d="m0 0h5l-2 2-9 2-6 1-2-1v2l-4 1v-2h-2v2h-5l-5 1-5-1v-1z" fill="#4688D5"/>
<path transform="translate(750,1078)" d="m0 0h2l-1 7-2 2-1 5h-3l-2 4-5 4 2-5 7-12 1-3h2z" fill="#45BDED"/>
<path transform="translate(1502,620)" d="m0 0 5 1-2 25-1 1h-6l3-2h2v-15l1-9z" fill="#53C7E9"/>
<path transform="translate(574 1e3)" d="m0 0 4 1 2-1 1 6 1 3 4-1v11l-4-5-8-13z" fill="#4693DB"/>
<path transform="translate(327,797)" d="m0 0 2 3-1 30h-2v-32z" fill="#42C0F2"/>
<path transform="translate(717,1147)" d="m0 0 1 4-9 15-4 4-1-3 9-15 1-3z" fill="#43ADE8"/>
<path transform="translate(631,1146)" d="m0 0 4 2 1-2 3 6-1 2 1 4-1 3h-2l-1 2-3-4v-2l3-2-1-3-2 1z" fill="#4794DB"/>
<path transform="translate(766,1131)" d="m0 0 1 3-3 9-6 10h-2v-5z" fill="#59D8EE"/>
<path transform="translate(305,926)" d="m0 0h1v58h-1l-1-49-1-3z" fill="#457DD0"/>
<path transform="translate(1385,769)" d="m0 0h2v2l-11 7-10 9-4 5-2-1 8-10 10-8z" fill="#70DDE7"/>
<path transform="translate(670,1092)" d="m0 0h2l1 2h2v5l-2 4 2 1-3 2-4-5-1-4 1-3h2z" fill="#45A3E3"/>
<path transform="translate(1329,815)" d="m0 0 3 3v22h-1l-3-9v-15z" fill="#79E2E5"/>
<path transform="translate(929,1422)" d="m0 0 10 2 6 1 1 3-10 1-7-2-2-3h2z" fill="#44AEE9"/>
<path transform="translate(1375,1378)" d="m0 0 7 1 2 1v8l-1 6h-1l-1-9-1-2h-2l-1 2h-2l-1 2v-7z" fill="#468AD7"/>
<path transform="translate(794,1085)" d="m0 0 2 1-2 5-2 4-3 3v2l-6 5 1-5 8-14z" fill="#54DEF2"/>
<path transform="translate(523,979)" d="m0 0h3v2l6-2 7 1h11l12-1 1 5-2-1-36-1z" fill="#4682D3"/>
<path transform="translate(509,938)" d="m0 0 3 4-3 7h-2l-1 3-4-7 2-4 5-1z" fill="#44B7EC"/>
<path transform="translate(358,774)" d="m0 0h4v15l-4 4z" fill="#4CD4F0"/>
<path transform="translate(1037,772)" d="m0 0h5l1 1v8l-1 1h-5l-1-2v-7z" fill="#4ED2F1"/>
<path transform="translate(736,1186)" d="m0 0 1 4-6 10-3 2-1 3-2-1 3-8 6-9z" fill="#47BBEA"/>
<path transform="translate(730,1070)" d="m0 0 23 1-1 3-6 1-13-1-4-1z" fill="#43A6E5"/>
<path transform="translate(608,894)" d="m0 0 3 2 2 5 1-3 3 1 1 3 2 3 2 4-1 5-4-4-2-5-3-1-4-8z" fill="#52EDF9"/>
<path transform="translate(1314,1235)" d="m0 0 7 1 10 6 4 3-4 1-13-6-2-2z" fill="#43ABE8"/>
<path transform="translate(769,1053)" d="m0 0 1 3-1 2h-2l-2 6-4 6-4 1 2-6 5-8z" fill="#478FD9"/>
<path transform="translate(737,1043)" d="m0 0 1 2-1 2h-2l-1 5-4 7-2 6-2 2-1-5 10-18zm-6 16 2 4-4 1z" fill="#4AC8ED"/>
<path transform="translate(948,685)" d="m0 0h23v1l-19 1 2 1-2 6-4-3-4 1 3-6z" fill="#50CBEC"/>
<path transform="translate(1632,664)" d="m0 0h6l8 4 3 5-9-2-2-2-3 1-3-4z" fill="#75F6EF"/>
<path transform="translate(595,1037)" d="m0 0h3v4l4 2 2 2 2 4 1 4-2 3-10-17z" fill="#468ED8"/>
<path transform="translate(265,802)" d="m0 0 3 1 1 7 1 1v11l-5-5z" fill="#4CD4F0"/>
<path transform="translate(790,1135)" d="m0 0 1 3-11 20-2-3 9-17z" fill="#49BEE9"/>
<path transform="translate(1338,1307)" d="m0 0 7 1 11 4-2 3h-5l-5-3-6-2z" fill="#4794DB"/>
<path transform="translate(1230,1294)" d="m0 0 5 2 1 7 3 5h-3l-3-3v-2h-2l-1 3z" fill="#42BEF1"/>
<path transform="translate(639,1161)" d="m0 0 3 1v5l1-1 4 3v2h-2l-2 4-4-5-2-5h2z" fill="#4792DA"/>
<path transform="translate(623,1080)" d="m0 0 3 1v2h-2v2l2 1 2 3h2l2-2 1 6v2l-4 1-8-13-1-2z" fill="#4793DB"/>
<path transform="translate(1434,696)" d="m0 0h3l-2 4h-3v4l4 1 3 1-1 5-2 2v-5l-5-1-1-2v-6l1-2z" fill="#54ECF9"/>
<path transform="translate(1e3 687)" d="m0 0h5l5 2 1-2v5l-2 2-6-1-2-4h-8v-1z" fill="#62FEFA"/>
<path transform="translate(677,1150)" d="m0 0h1l-1 7-1 3h-2l-1-1h-2l-3 4-2-5 4-4 2-1 1-2 3 2z" fill="#4792DA"/>
<path transform="translate(555,1131)" d="m0 0 4 2v3h2v3h2l4 8 2 2v4l-3-1-11-19z" fill="#44A0E2"/>
<path transform="translate(386,842)" d="m0 0h1v20l1 11h-2l2 8-3 1v-34z" fill="#4CD4F0"/>
<path transform="translate(889,647)" d="m0 0 1 3-13 24-2-3 13-23z" fill="#77E3E6"/>
<path transform="translate(962,728)" d="m0 0 2 4-2 4h-2v2h-2l-3-5h-2l1-3z" fill="#86FDEB"/>
<path transform="translate(443,702)" d="m0 0 2 4 3-1 2 5 2 6 2 1v7l-3-4-8-14z" fill="#45B8EB"/>
<path transform="translate(1012,1246)" d="m0 0h1v30l-2 8-1-4z" fill="#44AFEA"/>
<path transform="translate(1181,1237)" d="m0 0 2 1-7 9-2 6-7 3 2-5z" fill="#54CBEB"/>
<path transform="translate(691,1177)" d="m0 0 3 2 4-2 1 6-3 3-4-1 1-2-6 3 2-5z" fill="#4795DC"/>
<path transform="translate(461,858)" d="m0 0 6 4 2 3-1 4v-2h-2l-1-2-1 2h-2v-2l-3 1-1-5z" fill="#45C2F0"/>
<path transform="translate(1271,776)" d="m0 0 5 4-1 8-2 10h-1l-1-10 1-4h-2l-1-3z" fill="#51D1EF"/>
<path transform="translate(423,767)" d="m0 0h8l6 1 1 3-7 2-4-1-1-1-3-1z" fill="#4794DB"/>
<path transform="translate(1422,635)" d="m0 0h8l1 5-15 1 4-5z" fill="#55E9F7"/>
<path transform="translate(823,725)" d="m0 0h3l-3 12-3 1-1 3-3-1-1-3 4-4 2 1-1-5 1-2h2z" fill="#58FEFE"/>
<path transform="translate(1599,1374)" d="m0 0 3 1-15 6h-2l-2 5h-7l-1 3-1-3 5-3h2v-2z" fill="#4498DE"/>
<path transform="translate(787,1100)" d="m0 0 1 2-5 8-4 7h-2l-1-3 6-11 2 1z" fill="#4DD6F1"/>
<path transform="translate(658,1077)" d="m0 0 5 3 1 4h2l-2 5-4-1-3-6z" fill="#42B4EC"/>
<path transform="translate(384,910)" d="m0 0 2 1v28l-1 3h-2v-31z" fill="#43B7EE"/>
<path transform="translate(807,748)" d="m0 0h2l-1 5-8 14-2 1-2 4-1-2z" fill="#7AE9E8"/>
<path transform="translate(686,1186)" d="m0 0 6 2-1 3h-2l-1 3h-6-3l-2-4 6 1z" fill="#4791D9"/>
<path transform="translate(1526,1393)" d="m0 0h9v1l-10 2-1 6 10-2 5 1v1l-15 2-2-3v-5z" fill="#4590DA"/>
<path transform="translate(705,1157)" d="m0 0h5l-2 5-2 2-5 2-3 3v-3l5-8z" fill="#4792DA"/>
<path transform="translate(730,994)" d="m0 0 2 1 3 4-2 5-2 2-2-3-3 3 1-7z" fill="#49C9EE"/>
<path transform="translate(598,978)" d="m0 0h5v3l3 6-1 2h4v2l-1 1 2 1-2 4-10-17z" fill="#449DE1"/>
<path transform="translate(424,813)" d="m0 0h12v4l-4 3h-2v-2h-5l3-2-4-1z" fill="#4AD1F0"/>
<path transform="translate(886,649)" d="m0 0 1 2-12 22-1-4 8-16z" fill="#57FEFF"/>
<path transform="translate(1397,1363)" d="m0 0 10 3v1l5 1v1h-7l-20-4v-1h10z" fill="#44AFEA"/>
<path transform="translate(1364,1319)" d="m0 0 4 1v3l1 3 13 3v1l-8-1-19-6 3-1 6 2z" fill="#4494DC"/>
<path transform="translate(1465,1282)" d="m0 0h19l3 2-7 2-1-1h-6l-3 1-6-2z" fill="#4BD3F0"/>
<path transform="translate(1298,1329)" d="m0 0 6 3v2l3 1v3l5-1 3 3-6 1-6-3-2-3-3-1z" fill="#459BDF"/>
<path transform="translate(1257,1269)" d="m0 0h7l7 5-3 3-5-2-6-5z" fill="#44A3E3"/>
<path transform="translate(359,1199)" d="m0 0h2l-2 4-5 6-9 9h-2l2-4 2-3h2l1-3h2v-2l5-4z" fill="#478ED8"/>
<path transform="translate(662,1197)" d="m0 0 3 1-1 3 4 1-2 3v7l-3-1v-6l-2 1-1-7z" fill="#478FD9"/>
<path transform="translate(654,1066)" d="m0 0 1 2h5l-1 2-4-1 1 2 3 1 1 4h-3l-1 2-3-3-1-6z" fill="#42B7EE"/>
<path transform="translate(1656,1031)" d="m0 0 8 5-1 6 2 4-3 1-2-2 1-5h-2v-4l-4-2z" fill="#4AC7ED"/>
<path transform="translate(621 1e3)" d="m0 0h2l2 6h-2l1 4-2 2-4-4v-3l-1-4 4 1z" fill="#43C0F1"/>
<path transform="translate(578,907)" d="m0 0 5 2 5 6 2 5-1 9h-1v-11l-3-1-2-5-5-2z" fill="#48B3E5"/>
<path transform="translate(390,898)" d="m0 0h1v13l-2 1-1-3-4 1v-4h2l-1-4 3 2z" fill="#47CBF1"/>
<path transform="translate(312,1379)" d="m0 0 1 4 4 2v6l-2 1-2 3-2-5v-8z" fill="#4579CF"/>
<path transform="translate(1231,1303)" d="m0 0h2v2l3 1 3 5 1 3-5-1-5-5z" fill="#45A1E2"/>
<path transform="translate(1736,1141)" d="m0 0 5 1 1 8h-6l-1-8z" fill="#4596DD"/>
<path transform="translate(1669,1046)" d="m0 0 5 1 3 2-1 4-1 2-4-1-2-2v-4z" fill="#459ADF"/>
<path transform="translate(952,686)" d="m0 0h20v2l-15 1-4 3 1-4-3-1z" fill="#73FEF3"/>
<path transform="translate(1009,641)" d="m0 0h4v15l-2-2-2 3z" fill="#57FEFF"/>
<path transform="translate(1247,1250)" d="m0 0 4 2 7 6-2 4-7-6-3-5z" fill="#45A7E5"/>
<path transform="translate(562,978)" d="m0 0 4 1 3 6-1 7-4-5-2-7z" fill="#44A7E6"/>
<path transform="translate(444,836)" d="m0 0 3 1-1 4 7 1-2 3-1 6-3-4-4-7z" fill="#44A3E4"/>
<path transform="translate(1436,698)" d="m0 0 4 1v6l-4 1-4-2v-4z" fill="#7DEEE8"/>
<path transform="translate(1369,1317)" d="m0 0 10 2 3 2-1 2-8-1-5-2z" fill="#4790D9"/>
<path transform="translate(1314,1295)" d="m0 0 6 2 8 4-2 2h-5v-2l-8-2z" fill="#44A8E6"/>
<path transform="translate(640,1044)" d="m0 0 2 4 3 2-1 5h3v2h-2l-1 3-6-12h2l-1-3z" fill="#43A6E5"/>
<path transform="translate(653,996)" d="m0 0 1 2h3l1 11-4-1-2-4z" fill="#48C7EE"/>
<path transform="translate(1227,688)" d="m0 0v3l-11 15-3 4-2-1 10-14z" fill="#76E2E6"/>
<path transform="translate(1231,1242)" d="m0 0 6 5v4l2 2-4-1-7-6v-2z" fill="#44B3EB"/>
<path transform="translate(700,1115)" d="m0 0h3l-1 6-3 5h-2l-1-3v-4z" fill="#44B0EA"/>
<path transform="translate(589,1018)" d="m0 0 3 3 4 6v5l2 1h-4l-2-4-1-4h-2z" fill="#43BDF0"/>
<path transform="translate(1615,797)" d="m0 0 8 2v2h2l3 5h-4l-9-7z" fill="#75EFEC"/>
<path transform="translate(1409,756)" d="m0 0 4 3v2l-12 3-1-3 8-4z" fill="#58E8F5"/>
<path transform="translate(1197,732)" d="m0 0h3l-2 6-3 7h-2v-9z" fill="#57E3F3"/>
<path transform="translate(820,727)" d="m0 0 1 4 1 3-2 2-1-2-4 4-3 5-1-2 7-13z" fill="#7DEFE9"/>
<path transform="translate(1576,1349)" d="m0 0 3 1h-2l-1 3-5 1-1 2-2-1v2l-4-2v-2z" fill="#449CE0"/>
<path transform="translate(380,1235)" d="m0 0 6 3 5 2v3l-7-3-6 2-3 2 2-7z" fill="#4579CF"/>
<path transform="translate(489,920)" d="m0 0 5 2 2 6 2 1v4l2 1-2 3-9-16z" fill="#449EE1"/>
<path transform="translate(1651,756)" d="m0 0 6 1 2 4h3l-1 4-4-2-6-4z" fill="#74EAEB"/>
<path transform="translate(1255,639)" d="m0 0 2 1-7 7-4 2-4-1 3-3h2v-2z" fill="#57FEFF"/>
<path transform="translate(961,624)" d="m0 0 2 2-11 20-1-4 7-13z" fill="#53DEF3"/>
<path transform="translate(1519,1323)" d="m0 0 5 1 2 1v2l-8 2-2 2-1 6h-1v-8z" fill="#45A7E4"/>
<path transform="translate(1282,1279)" d="m0 0h6l8 5-3 1h-5l-5-1 1-3h-2z" fill="#44A7E6"/>
<path transform="translate(669,1195)" d="m0 0 7 2h1l3 1-1 4-2-1h-9v-3h-2l1-2z" fill="#4792DA"/>
<path transform="translate(754,1153)" d="m0 0h1v7l-5 7-2-1 1-5z" fill="#50D4F1"/>
<path transform="translate(612,1067)" d="m0 0 2 1v4h-16l-4-1v2l-3-1-1-4 2 1 20 1z" fill="#457ACF"/>
<path transform="translate(783,1021)" d="m0 0v3l-7 15-3-1 2-5 6-11z" fill="#459EE1"/>
<path transform="translate(1212,846)" d="m0 0h2v10l-5 1v-6z" fill="#4ED8F3"/>
<path transform="translate(377,703)" d="m0 0 6 5v3l-4 1h-7l3-2 3-1-3-1z" fill="#47B1E6"/>
<path transform="translate(1378,1382)" d="m0 0 3 1 1 2v7l-1-2-2-1-1-1v4h-2v-7z" fill="#44AFEA"/>
<path transform="translate(594,1071)" d="m0 0 19 1v1h-8v2l-9-1-2 2-1-3z" fill="#4894DB"/>
<path transform="translate(445,834)" d="m0 0 8 3 1 4-4 1-4-1z" fill="#42BCF0"/>
<path transform="translate(1209,784)" d="m0 0h7l3 1-1 4h-7l-2-1z" fill="#50D7F1"/>
<path transform="translate(1610,687)" d="m0 0h1v6l6 2h2l-2 5-2 2-5-8z" fill="#52DEF4"/>
<path transform="translate(1716,1092)" d="m0 0 5 5 2 5h-3l-2-2-1 2-3-1z" fill="#4BCBEE"/>
<path transform="translate(635,1026)" d="m0 0 3 4 4 6-1 4h-2l-1-3-3-1 1-2-1-1-1-5z" fill="#44AEE8"/>
<path transform="translate(419,657)" d="m0 0h2l5 7 1 3-3 3-3-4z" fill="#43BAEE"/>
<path transform="translate(319,1024)" d="m0 0h10l-4 2-3 5-3 2z" fill="#43B1EB"/>
<path transform="translate(384,975)" d="m0 0h1l1 11-1 10-1 5h-1v-21z" fill="#42B8EE"/>
<path transform="translate(1207,821)" d="m0 0 1 3h5v5h-7l-1-5h2z" fill="#44A1E3"/>
<path transform="translate(430,668)" d="m0 0 4 4-1 4-2-2v3h-2l-5-5v-2l4-1 2 1z" fill="#43BCEF"/>
<path transform="translate(1282,1321)" d="m0 0 4 2 5 2 5 3-1 2h-3l-2-3-7-1-3-2h2z" fill="#44AFEA"/>
<path transform="translate(688,1141)" d="m0 0 1 2-4 7-4-3-1 2-1-3 4-4h4z" fill="#4793DB"/>
<path transform="translate(549,1118)" d="m0 0h2v2h2v5l2 1 3 5-1 2-4-4-4-8z" fill="#44A6E5"/>
<path transform="translate(761,1057)" d="m0 0 2 4-4 5-2 7-1-3h-2l2-5z" fill="#45ABE6"/>
<path transform="translate(554,1010)" d="m0 0 3 1-1 5-6 1-1-4z" fill="#43AFEA"/>
<path transform="translate(355,900)" d="m0 0 2 3v7 3 9l-2 3z" fill="#44AFEA"/>
<path transform="translate(383,882)" d="m0 0h3v17h-2l-1-3z" fill="#43B5ED"/>
<path transform="translate(1641,1359)" d="m0 0 2 1-1 3-13 8-2-1 9-7h3z" fill="#43A8E6"/>
<path transform="translate(1643,1355)" d="m0 0m-1 1m-1 1m-2 1h2l-2 5-9 5-2 1 1-4z" fill="#4CD4F0"/>
<path transform="translate(586,1022)" d="m0 0 4 1-1 2h2l4 8 1 3h-3l-7-12z" fill="#4687D5"/>
<path transform="translate(716,1017)" d="m0 0 1 2 2 1v2h-3l-1 5h-3l-1-4 3-5z" fill="#4ACBEE"/>
<path transform="translate(551,974)" d="m0 0 8 1-2 2 1 2-14-1 4-2z" fill="#43C3F2"/>
<path transform="translate(614,904)" d="m0 0 2 1 4 8 3 3 1 5-4-2-6-12z" fill="#4DDBF2"/>
<path transform="translate(385,910)" d="m0 0h2l3 7-1 7-3-1-1-6z" fill="#4AD1F0"/>
<path transform="translate(1155,805)" d="m0 0h1l1 16-1 3-1 11h-1v-16z" fill="#4BB2E4"/>
<path transform="translate(1330,802)" d="m0 0h1v9l2 3v5h-1l-1 5h-1l-1-17z" fill="#54E5F6"/>
<path transform="translate(944,692)" d="m0 0 6 2-1 4-1 2-5-1-1-4z" fill="#57F9FD"/>
<path transform="translate(1249,1259)" d="m0 0 2 2 1 4 2-3 6 4-2 2-3 1-8-6 2-1z" fill="#4694DB"/>
<path transform="translate(755,1158)" d="m0 0 2 1-2 6-5 7h-1l1-7 4-5z" fill="#45A6E5"/>
<path transform="translate(534,977)" d="m0 0 1 2 8-1 6 2v1h-15l-2-2h2z" fill="#45A7E5"/>
<path transform="translate(469,744)" d="m0 0 3 1 2 2 1-3 4 6v2l-3 1-3-2v-2l-3-1z" fill="#45BEEE"/>
<path transform="translate(857,704)" d="m0 0 1 4-9 17-1-4 7-13z" fill="#73DBE5"/>
<path transform="translate(1397,639)" d="m0 0 11 2v2l-12 1-1-3z" fill="#52E3F6"/>
<path transform="translate(1367,1320)" d="m0 0 9 2-1 4h-6l-1-2-3-2h2z" fill="#44A8E6"/>
<path transform="translate(1146,1309)" d="m0 0 7 1 1 5-4 2-3-2v-3z" fill="#43AFEA"/>
<path transform="translate(1741,1224)" d="m0 0h5l2 4-2 1h-7l1-4z" fill="#459BDF"/>
<path transform="translate(688,1198)" d="m0 0 2 3 1 2v9l-2 4-1-2z" fill="#478BD7"/>
<path transform="translate(570,1155)" d="m0 0 3 2 1 3 2 2 1 5h2l1 3-4-1-6-10z" fill="#44A2E3"/>
<path transform="translate(748,1093)" d="m0 0 3 2-6 10-2-4 2-5h2z" fill="#49C0EA"/>
<path transform="translate(268,797)" d="m0 0h2v14l-3-3 1-5h-2z" fill="#42C1F3"/>
<path transform="translate(1699,754)" d="m0 0h2l-1 6-4 4h-2l1-5 1-3z" fill="#57FEFF"/>
<path transform="translate(919,685)" d="m0 0h2l-2 6-6 11h-2l2-6z" fill="#54E2F5"/>
<path transform="translate(1428,685)" d="m0 0 5 2 1 4v2l-5-1 1-3-7-1v-1h5z" fill="#58EFF8"/>
<path transform="translate(1522,1316)" d="m0 0 6 1v1l-14 4-3-1 6-4z" fill="#4598DE"/>
<path transform="translate(1150,1274)" d="m0 0h3l-2 5-5 4-1 2-3-1z" fill="#45BBED"/>
<path transform="translate(680,1202)" d="m0 0 2 1v11l-3 4-3-1 2-4 2-5z" fill="#478DD8"/>
<path transform="translate(691,1183)" d="m0 0h2l1 2 2-1-1 6-6-2-2 2 1-5z" fill="#45A5E5"/>
<path transform="translate(747,1171)" d="m0 0 2 1v2l-2 1-1 5-3 3-3 5-2-1 6-10z" fill="#4894DB"/>
<path transform="translate(502,1030)" d="m0 0 2 1 1 4 2 1 1 5-2 2-1-4h-2v-2h-2z" fill="#43C3F2"/>
<path transform="translate(1305,1375)" d="m0 0 6 2v4h-2l-1 3h-2v-4l-2-1z" fill="#4CD4F0"/>
<path transform="translate(1313,1360)" d="m0 0 7 2-2 9-2 3-1-4h2l-1-2v-6l-3-1z" fill="#459CE0"/>
<path transform="translate(1733,1275)" d="m0 0h1v8l-5 1v-4l1-3h3z" fill="#44A7E5"/>
<path transform="translate(1205,1244)" d="m0 0 1 3-10 12-1-3z" fill="#49BBE8"/>
<path transform="translate(1184,1235)" d="m0 0 2 1-2 4-8 10-1-3 7-9v-2z" fill="#46C9F1"/>
<path transform="translate(1287,1215)" d="m0 0 4 1 8 6-3 1-5-1v-3l-4-2z" fill="#47BCEB"/>
<path transform="translate(678,1093)" d="m0 0h2l-1 5-4 5h-2l1-4 2-5z" fill="#46BCED"/>
<path transform="translate(805,1063)" d="m0 0 2 1-2 6h-2l-1 4-1 3h-2l1-6z" fill="#54E5F6"/>
<path transform="translate(1273,781)" d="m0 0 1 2-3 8-3 2v-11h2v2h2z" fill="#88FFEB"/>
<path transform="translate(959,761)" d="m0 0 4 1-3 15h-1v-8l-1-3z" fill="#88FFEB"/>
<path transform="translate(1312,715)" d="m0 0 3 1-11 11v-4l4-5h2v-2z" fill="#52E1F5"/>
<path transform="translate(1570,641)" d="m0 0 11 2v1l-5 1-4 1-2 4z" fill="#51DDF4"/>
<path transform="translate(1520,623)" d="m0 0 4 2 1 2-3 2-2 10h-1v-11z" fill="#7AECE9"/>
<path transform="translate(1422,1368)" d="m0 0h9v1l5 1-3 2h-7l-4-2z" fill="#44AFEA"/>
<path transform="translate(250,1294)" d="m0 0 2 1-1 14h-2l-1-14z" fill="#4894DB"/>
<path transform="translate(1257,1259)" d="m0 0 5 2 5 5-4 1v-2l-5-2z" fill="#45A0E2"/>
<path transform="translate(988,1217)" d="m0 0 3 3 1 2-1 9-2 2z" fill="#47AEE5"/>
<path transform="translate(530,752)" d="m0 0 3 4 5 11h-3l-4-8-1-1z" fill="#54F4FB"/>
<path transform="translate(327,749)" d="m0 0 2 4 1 7-3 4-1-10z" fill="#45C7F2"/>
<path transform="translate(829,711)" d="m0 0h3l-1 7-3 3-2-2h3l-3-3 1-4z" fill="#71F9F2"/>
<path transform="translate(1612,701)" d="m0 0 2 3-4 3-4 1h-7l4-3 7-2z" fill="#4FD2F0"/>
<path transform="translate(864,689)" d="m0 0 1 2-4 8-1 5-2 2-1-7 3-3 3-6z" fill="#57F2FA"/>
<path transform="translate(947,689)" d="m0 0 1 2 5 1 1 3-4 6-1-4 1-3-3 1v-2l-2-1h2z" fill="#78F1EC"/>
<path transform="translate(1551,1389)" d="m0 0 4 1-3 1-1 2h-15v-1z" fill="#4592DB"/>
<path transform="translate(1354,1315)" d="m0 0 1 2h5l2 5-10-2z" fill="#43B0EA"/>
<path transform="translate(1154,1314)" d="m0 0 5 3 11 10-1 2-12-11-3-2z" fill="#449DE0"/>
<path transform="translate(1183,1283)" d="m0 0 4 2 8 8v2l-4-2-6-6v-2h-2z" fill="#44AFE9"/>
<path transform="translate(636,1153)" d="m0 0 2 1 1 4-1 3h-2l-1 2-3-4v-2l3-2z" fill="#4790D9"/>
<path transform="translate(628,1083)" d="m0 0 3 2h3l-1 3-3 2h-3l-2-4z" fill="#469DE0"/>
<path transform="translate(325,1025)" d="m0 0h4v2l4 1-4 2-7 1z" fill="#4894DB"/>
<path transform="translate(540,874)" d="m0 0 3 2 1 8 2 1-2 3-5-10z" fill="#47B5E8"/>
<path transform="translate(297,796)" d="m0 0h8v3l-4 3-3-1z" fill="#43B6ED"/>
<path transform="translate(1410,694)" d="m0 0 4 2-1 7-3-1v-3h-2z" fill="#57FEFF"/>
<path transform="translate(1502,620)" d="m0 0 5 1-1 15h-1l-1-6v-9z" fill="#4CBBE8"/>
<path transform="translate(1720,1162)" d="m0 0h1l2 10v8l-2-3-2-7z" fill="#49B6E7"/>
<path transform="translate(750,1078)" d="m0 0h2l-1 7-7 5 2-6 2-4h2z" fill="#44B5EB"/>
<path transform="translate(773,1046)" d="m0 0 1 3-2 4-5 1-1 3-1-2 6-8z" fill="#4683D3"/>
<path transform="translate(728,993)" d="m0 0 2 2-2 5-2 6h-3v-3z" fill="#47BEEB"/>
<path transform="translate(1370,779)" d="m0 0h2l-2 4-8 9-2-1 8-10z" fill="#74E2E8"/>
<path transform="translate(1247,775)" d="m0 0 1 3-3 11-2-4v-6z" fill="#4ABDE8"/>
<path transform="translate(1674,771)" d="m0 0h2l1 3v9l-3-1 1-4-4-4z" fill="#56E0F3"/>
<path transform="translate(477,758)" d="m0 0 3 1-1 8-3-1-1-7z" fill="#48C2EC"/>
<path transform="translate(946,749)" d="m0 0 4 1v5l-6-3-2 6h-2l1-6z" fill="#86FEEB"/>
<path transform="translate(1544,1428)" d="m0 0h6l-4 1v2h-5l-5 1-5-1v-1z" fill="#4684D4"/>
<path transform="translate(1527,1396)" d="m0 0h2v3h5l-4 3h-6v-5z" fill="#42C0F2"/>
<path transform="translate(588,1142)" d="m0 0 3 1 6 11-1 3-4-7v-2l-3-1z" fill="#44A1E3"/>
<path transform="translate(973,1142)" d="m0 0 7 6 2 3-3 1-6-6z" fill="#4DC8EC"/>
<path transform="translate(716,1078)" d="m0 0 3 1-2 5-4 4-2-1z" fill="#45B1E9"/>
<path transform="translate(730,1067)" d="m0 0 1 3-2 4h-2v-2h-3l1-2zm-6 6 3 1-1 2h-3z" fill="#4AD0F0"/>
<path transform="translate(739,1048)" d="m0 0h5l-5 9h-3z" fill="#49BFEA"/>
<path transform="translate(641,1043)" d="m0 0h2v3l5 1v7l-3-1-1-3-3-2z" fill="#42BFF2"/>
<path transform="translate(722,1018)" d="m0 0 1 4-4 7-3-1 4-8z" fill="#4AC3EA"/>
<path transform="translate(489,780)" d="m0 0 3 1 3 3v3h-2v2l-4-1 1-6z" fill="#45C6F1"/>
<path transform="translate(1159,777)" d="m0 0h2l-1 12-2 4-1-5z" fill="#53D8F1"/>
<path transform="translate(1690,1373)" d="m0 0 2 1-1 5h-3l-8 2 4-4z" fill="#45B4E9"/>
<path transform="translate(1338,1346)" d="m0 0 6 1 1 6-4-1-4-2z" fill="#43B3EC"/>
<path transform="translate(1457,1336)" d="m0 0h2l1 3-1 3h-5v-2h-3v-2z" fill="#44ADE9"/>
<path transform="translate(1544,1269)" d="m0 0 2 1-3 4-7 1-2-3z" fill="#45B3E9"/>
<path transform="translate(1169,1254)" d="m0 0h3v2h-2l-2 4-4 4-1-3 3-3v-3z" fill="#43B7ED"/>
<path transform="translate(600,1046)" d="m0 0h4l2 3 1 4-2 3-5-8z" fill="#4689D6"/>
<path transform="translate(533,973)" d="m0 0 4 1-3 2zm-4 1h3v2h2v3l-4-1-3-1v-2z" fill="#44C1F1"/>
<path transform="translate(696,949)" d="m0 0 3 1v2l-4 4-2 5h-2l1-5z" fill="#52E6F7"/>
<path transform="translate(1006,870)" d="m0 0h1l1 5 2-1 1 6-4-3v12h-1z" fill="#88FFEB"/>
<path transform="translate(1492,660)" d="m0 0h8v1h-5l6 3-3 3-3 1-1-4v-3z" fill="#52E1F5"/>
<path transform="translate(1501,1364)" d="m0 0h12v1l-9 2h-8l3-2z" fill="#4683D3"/>
<path transform="translate(1507,1343)" d="m0 0h5l4 4h-3l1 3-4-2z" fill="#43A9E7"/>
<path transform="translate(1594,1315)" d="m0 0 3 1-14 7h-2l2-4 9-3z" fill="#43A4E4"/>
<path transform="translate(737,1189)" d="m0 0h1v5h-3l-1 7-3 1 1-5z" fill="#4894DB"/>
<path transform="translate(573,1056)" d="m0 0 5 2 1 3h2l-2 5-4-5z" fill="#4593DB"/>
<path transform="translate(501,1037)" d="m0 0h2v2h2l5 9-1 4-8-14z" fill="#48B4E6"/>
<path transform="translate(335,1035)" d="m0 0 7 3v1h-23v-1h16z" fill="#457ED1"/>
<path transform="translate(339,1006)" d="m0 0 4 1v2h-24v-1l19-1z" fill="#4791D9"/>
<path transform="translate(326,893)" d="m0 0h3l-1 4h4v4h-5v-4h-2z" fill="#42BEF0"/>
<path transform="translate(1210,816)" d="m0 0 4 2v9l-3-2v-2h2v-2l-3 1-1-3z" fill="#457DD1"/>
<path transform="translate(1298,787)" d="m0 0 4 3-3 7h-2l-1 3 1-9z" fill="#54DCF2"/>
<path transform="translate(1304,1375)" d="m0 0 1 4 3 3 1 4-6-2-1-4z" fill="#44A9E5"/>
<path transform="translate(1280,1325)" d="m0 0 10 1 2 2v3l-6-2-6-3z" fill="#468ED8"/>
<path transform="translate(1353,1319)" d="m0 0 9 3-1-3 5 1-2 1v3l-12-3z" fill="#42C1F2"/>
<path transform="translate(1328,1302)" d="m0 0 5 1 2 2-1 2h-7z" fill="#43ABE8"/>
<path transform="translate(1275,1272)" d="m0 0 5 2 1 5h-3v-2l-6-2 3-1z" fill="#44A8E6"/>
<path transform="translate(691,1177)" d="m0 0 3 4v2l-7 3 2-5z" fill="#4691DA"/>
<path transform="translate(790,1135)" d="m0 0 1 3-4 8-2-4 4-6z" fill="#49C1EA"/>
<path transform="translate(1206,814)" d="m0 0h9v4l-5-1-4 1z" fill="#449CE0"/>
<path transform="translate(1267,781)" d="m0 0 2 4-1 9-3 1 1-10z" fill="#54D8F0"/>
<path transform="translate(470,753)" d="m0 0h4l1 3 2 1-1 3-2 2-4-7z" fill="#44A0E2"/>
<path transform="translate(918,692)" d="m0 0 1 4h-2l-1 4-1 3-4 1-1-2h3l2-6z" fill="#86FEEB"/>
<path transform="translate(1611,659)" d="m0 0 6 1v3h-8l-3-1v-2z" fill="#58F3F9"/>
<path transform="translate(1269,1347)" d="m0 0h1l-1 8-4 1 1-5z" fill="#44A5E5"/>
<path transform="translate(1010,1313)" d="m0 0 1 4-1 4-3-1-1-3 1-3z" fill="#43B5ED"/>
<path transform="translate(736,1186)" d="m0 0 1 4-4 6-1-4 2-5z" fill="#46BFED"/>
<path transform="translate(694,1172)" d="m0 0h2l2 5-5 3-1-5z" fill="#44A3E3"/>
<path transform="translate(675,1088)" d="m0 0 4 3 1 2-5 2h-3l1-4z" fill="#44AFE9"/>
<path transform="translate(623,1080)" d="m0 0 3 1v2h-2v2l2 1 1 5-4-5-3-5z" fill="#468CD7"/>
<path transform="translate(579,1066)" d="m0 0h3l5 11-2 1-6-10z" fill="#468AD6"/>
<path transform="translate(765,1062)" d="m0 0h2l-1 6-3 4v-2l-2-1z" fill="#46B6E9"/>
<path transform="translate(333,1062)" d="m0 0 4 4-1 2h-7l1-4h3z" fill="#44AFEA"/>
<path transform="translate(322,906)" d="m0 0m-1 1 1 4-6 5-2 2-1-3h2l2-4 3-1z" fill="#43B5EC"/>
<path transform="translate(448,711)" d="m0 0 2 1 3 5h1v7l-3-4-3-5z" fill="#47B6E8"/>
<path transform="translate(1439,629)" d="m0 0h10v9l-2-3-2-4-6-1z" fill="#5AC8E8"/>
<path transform="translate(1576,1319)" d="m0 0h7l-2 4h-8l3-1z" fill="#4BD1EF"/>
<path transform="translate(1170,1288)" d="m0 0 1 2-8 10-1-3z" fill="#43AAE7"/>
<path transform="translate(754,1196)" d="m0 0h3l-2 5-2 2-2-1v-4z" fill="#44B6EB"/>
<path transform="translate(702,1171)" d="m0 0 1 4-3 6-3 1 1-5z" fill="#44A9E6"/>
<path transform="translate(615,1111)" d="m0 0 4 5v4h-2l-2-4h-3v-3h2z" fill="#459FE1"/>
<path transform="translate(608,1105)" d="m0 0 2 1v2l4-1 1 4-5 1-2-3z" fill="#4794DB"/>
<path transform="translate(616,1073)" d="m0 0 3 1 1 3h-2v2h-5l2-5z" fill="#45C7F1"/>
<path transform="translate(586,1010)" d="m0 0m-2 1 2 1v10l-4-5z" fill="#459ADF"/>
<path transform="translate(500,801)" d="m0 0 1 2-2-1zm-2 2 3 1 3 6-1 4-5-9z" fill="#47B4E7"/>
<path transform="translate(1271,776)" d="m0 0 5 4-1 3-2-1-1 2h-2l-1-3z" fill="#56FCFE"/>
<path transform="translate(1250,760)" d="m0 0 2 2-1 5-2 3v-2h-2l1-6h2z" fill="#4ECFEE"/>
<path transform="translate(829,734)" d="m0 0 1 2-6 9-2 1 2-5 2-6z" fill="#57FEFF"/>
<path transform="translate(846,725)" d="m0 0 1 3-6 10-2-1z" fill="#76E2E6"/>
<path transform="translate(823,725)" d="m0 0h3l-2 7h-3l-1-3 1-2h2z" fill="#5AFEFD"/>
</svg>
